<svg width="137" height="213" viewBox="0 0 137 213" fill="none" xmlns="http://www.w3.org/2000/svg">
<g clip-path="url(#clip0_59_1118)">
<rect width="137" height="213" rx="10" fill="#06063F"/>
<path d="M87.6031 43.86H76.7031C75.3298 43.86 74.3498 43.46 73.7631 42.66C73.1765 41.86 72.8831 41.0333 72.8831 40.18C72.8831 39.7667 72.9365 39.3333 73.0431 38.88L74.2631 34.36L75.3631 30.24C75.7631 28.8533 76.4298 27.8733 77.3631 27.3C78.3098 26.7133 79.2031 26.42 80.0431 26.42C80.4565 26.42 80.8831 26.48 81.3231 26.6L88.1231 28.56C88.8831 28.8267 89.2631 29.3133 89.2631 30.02C89.2631 30.18 89.2431 30.3533 89.2031 30.54L87.0231 38.66L85.9231 42.74H87.9031L87.6031 43.86ZM80.9431 42.74L84.1631 30.74C84.2031 30.5533 84.2231 30.3733 84.2231 30.2C84.2231 29.84 84.1431 29.5067 83.9831 29.2C83.7431 28.7333 83.3631 28.42 82.8431 28.26C82.6698 28.22 82.5031 28.2 82.3431 28.2C82.0098 28.2 81.6965 28.2867 81.4031 28.46C80.9631 28.74 80.6565 29.1533 80.4831 29.7L77.5431 40.76C77.4898 40.9467 77.4631 41.1267 77.4631 41.3C77.4631 41.6333 77.5565 41.92 77.7431 42.16C78.0231 42.5467 78.4365 42.74 78.9831 42.74H80.9431ZM94.8616 42.74C95.4082 42.74 95.9216 42.5533 96.4016 42.18C96.8816 41.7933 97.2016 41.32 97.3616 40.76L99.7616 31.78C99.8016 31.5933 99.8216 31.42 99.8216 31.26C99.8216 30.9267 99.7349 30.6333 99.5616 30.38C99.2816 29.9933 98.8682 29.8 98.3216 29.8C97.7882 29.8 97.2816 29.9933 96.8016 30.38C96.3216 30.7533 95.9949 31.2133 95.8216 31.76L92.8816 42.74H94.8616ZM99.0216 27.06C98.5282 27.06 98.1749 26.92 97.9616 26.64C97.7616 26.3467 97.6616 26.0533 97.6616 25.76C97.6616 25.6 97.6816 25.4333 97.7216 25.26C97.8682 24.7533 98.1549 24.3267 98.5816 23.98C99.0216 23.6333 99.4949 23.46 100.002 23.46C100.495 23.46 100.848 23.6067 101.062 23.9C101.275 24.1933 101.382 24.4933 101.382 24.8C101.382 24.9467 101.362 25.1 101.322 25.26C101.162 25.7667 100.862 26.1933 100.422 26.54C99.9949 26.8867 99.5282 27.06 99.0216 27.06ZM87.6016 42.74H87.9016C88.1549 41.78 88.4149 40.8133 88.6816 39.84C89.5349 36.6267 90.3949 33.42 91.2616 30.22C91.3949 29.7533 91.6416 29.38 92.0016 29.1C92.3749 28.82 92.7949 28.68 93.2616 28.68H100.602C101.975 28.68 103.008 29.16 103.702 30.12C104.408 31.0667 104.595 32.2467 104.262 33.66C104.235 33.74 104.182 33.9333 104.102 34.24C103.995 34.6133 103.868 35.0667 103.722 35.6C103.588 36.1333 103.448 36.6667 103.302 37.2C103.155 37.7333 103.035 38.1867 102.942 38.56C102.848 38.92 102.795 39.1 102.782 39.1C102.328 40.46 101.502 41.5933 100.302 42.5C99.1149 43.4067 97.8549 43.86 96.5216 43.86H92.5816C92.4482 44.34 92.1949 44.72 91.8216 45C91.4616 45.28 91.0416 45.42 90.5616 45.42H87.1816C87.3149 44.9 87.4549 44.3733 87.6016 43.84V42.74ZM110.148 43.86H108.168C106.794 43.86 105.814 43.46 105.228 42.66C104.641 41.86 104.348 41.04 104.348 40.2C104.348 39.7867 104.408 39.3467 104.528 38.88L109.108 21.76C109.241 21.32 109.461 21.1 109.768 21.1C110.088 21.1 110.421 21.2533 110.768 21.56L113.488 24.04L109.008 40.76C108.968 40.9467 108.948 41.12 108.948 41.28C108.948 41.6133 109.041 41.9067 109.228 42.16C109.494 42.5467 109.901 42.74 110.448 42.74L110.148 43.86ZM112.081 43.86H110.121V42.74H110.421C110.914 42.74 111.401 42.58 111.881 42.26C112.374 41.9267 112.721 41.4333 112.921 40.78L115.301 31.84C115.434 31.3733 115.681 31 116.041 30.72C116.414 30.44 116.841 30.3 117.321 30.3H120.701L118.401 38.88C117.988 40.2933 117.174 41.48 115.961 42.44C114.748 43.3867 113.454 43.86 112.081 43.86ZM108.881 48.3C109.388 48.3 109.854 48.1267 110.281 47.78C110.721 47.4333 111.014 47.0067 111.161 46.5C111.201 46.3267 111.221 46.16 111.221 46C111.221 45.7067 111.141 45.4467 110.981 45.22C110.728 44.8733 110.354 44.7 109.861 44.7C109.354 44.7 108.888 44.8733 108.461 45.22C108.021 45.5667 107.721 45.9933 107.561 46.5C107.521 46.66 107.501 46.8133 107.501 46.96C107.501 47.2667 107.588 47.54 107.761 47.78C108.014 48.1267 108.388 48.3 108.881 48.3ZM112.921 48.3C113.414 48.3 113.881 48.1267 114.321 47.78C114.761 47.4333 115.054 47.0067 115.201 46.5C115.241 46.34 115.261 46.1867 115.261 46.04C115.261 45.7333 115.174 45.46 115.001 45.22C114.748 44.8733 114.374 44.7 113.881 44.7C113.388 44.7 112.921 44.8733 112.481 45.22C112.041 45.5667 111.748 45.9933 111.601 46.5C111.561 46.66 111.541 46.8133 111.541 46.96C111.541 47.2667 111.628 47.54 111.801 47.78C112.054 48.1267 112.428 48.3 112.921 48.3ZM117.867 48.3H115.527C115.594 48.0467 115.667 47.7933 115.747 47.54C115.827 47.2867 115.98 47.16 116.207 47.16C116.7 47.16 117.194 47 117.687 46.68C118.167 46.36 118.507 45.8733 118.707 45.22L122.707 30.22C122.84 29.7533 123.087 29.38 123.447 29.1C123.82 28.82 124.247 28.68 124.727 28.68H128.107L124.187 43.32C123.774 44.72 122.96 45.9 121.747 46.86C120.534 47.82 119.24 48.3 117.867 48.3Z" fill="white"/>
<path d="M152.338 194.096C152.237 194.096 152.137 194.059 152.059 193.984C139.265 181.621 122.812 185.92 106.9 190.077C104.132 190.801 101.518 191.484 98.9132 192.081C98.9013 192.084 98.8894 192.086 98.8773 192.088C89.8814 193.304 82.4206 188.581 75.2055 184.013C74.0888 183.306 72.9341 182.575 71.8064 181.889C71.6169 181.774 71.5568 181.527 71.6721 181.337C71.7872 181.148 72.0341 181.087 72.2239 181.203C73.3577 181.893 74.5154 182.626 75.6351 183.334C82.7239 187.822 90.0537 192.463 98.7515 191.294C101.338 190.7 103.942 190.02 106.697 189.3C114.563 187.245 122.696 185.12 130.561 185.066C130.659 185.065 130.759 185.065 130.857 185.065C139.69 185.065 146.81 187.795 152.617 193.406C152.776 193.56 152.781 193.814 152.627 193.974C152.548 194.055 152.443 194.096 152.338 194.096Z" fill="#E0EFFF"/>
<path d="M28.0508 125.468C25.8962 125.468 23.8609 125.124 22.1662 123.961C22.1271 123.934 22.0931 123.9 22.0658 123.862L20.5133 121.669C15.379 114.421 10.07 106.925 4.99484 99.5184C4.92597 99.4179 4.90649 99.2916 4.94184 99.1749C5.83311 96.2337 8.67191 96.1359 11.1765 96.0495C12.1195 96.017 13.0101 95.9864 13.8035 95.8253C13.8164 95.8227 13.8294 95.8207 13.8425 95.8194C15.6401 95.6348 17.4683 95.4609 19.2365 95.2926C21.4152 95.0853 23.668 94.8709 25.8813 94.635C30.2679 93.9566 32.8053 93.709 34.4952 94.2373C36.1911 94.7673 36.9991 96.0237 38.3374 98.1054C39.0502 99.2139 39.9323 100.586 41.1982 102.241C42.609 102.369 43.57 103.386 44.4223 104.288C44.7457 104.63 45.0511 104.954 45.3738 105.231C45.3882 105.243 45.4017 105.256 45.4141 105.27C46.2739 106.251 47.4239 106.661 48.6415 107.096C49.3366 107.344 50.0554 107.601 50.7396 107.973C50.7571 107.983 50.774 107.994 50.7898 108.006C52.031 108.945 52.8185 110.232 53.5799 111.476C54.5765 113.105 55.5179 114.643 57.3866 115.315C57.4163 115.326 57.4446 115.34 57.4711 115.357C63.7323 119.465 69.767 118.72 75.0916 118.063C78.2311 117.676 81.1964 117.31 83.8964 117.95C86.9429 118.672 89.2447 120.568 91.1403 123.917C91.2496 124.11 91.1816 124.355 90.9886 124.465C90.7952 124.574 90.5506 124.506 90.4412 124.313C86.5605 117.457 81.5425 118.076 75.1899 118.86C69.7396 119.533 63.5632 120.295 57.0695 116.055C54.9651 115.279 53.9128 113.559 52.8947 111.895C52.1773 110.723 51.4357 109.511 50.3288 108.664C49.7068 108.329 49.0281 108.086 48.3712 107.852C47.1187 107.405 45.8238 106.942 44.8292 105.821C44.4825 105.521 44.1552 105.175 43.8383 104.839C42.978 103.929 42.1653 103.069 40.9785 103.032C40.8585 103.028 40.7463 102.971 40.6729 102.875C39.3264 101.128 38.4034 99.693 37.6618 98.5395C36.3796 96.5452 35.6731 95.4467 34.2555 95.0035C32.7232 94.5246 30.1702 94.7839 25.9947 95.4299C25.9884 95.4308 25.9822 95.4317 25.9758 95.4323C23.7551 95.6691 21.4967 95.884 19.3126 96.0918C17.5524 96.2594 15.7323 96.4326 13.9438 96.6161C13.0897 96.787 12.1313 96.8199 11.2042 96.852C9.5907 96.9076 8.03595 96.9612 6.95481 97.6723C10.9571 97.4757 15.0164 97.0538 18.9502 96.6449C21.7217 96.3569 24.5874 96.059 27.41 95.8421C27.4249 95.841 27.4397 95.8407 27.4544 95.8412C28.2281 95.8669 29.0841 95.725 29.9898 95.574C32.1711 95.2106 34.6428 94.7987 36.0271 97.0778C39.0334 101.572 41.9006 106.256 44.6734 110.787C46.8718 114.379 49.145 118.093 51.4722 121.687C51.4779 121.696 51.4832 121.705 51.4882 121.714C51.8548 122.391 51.8871 122.984 51.584 123.477C50.7217 124.879 47.416 124.898 43.1845 124.778C41.629 124.734 40.1601 124.692 39.5868 124.845C39.5359 124.859 39.4828 124.863 39.4302 124.856C37.4351 124.591 35.1232 124.851 32.8874 125.102C31.2695 125.284 29.6282 125.468 28.0508 125.468ZM22.6793 123.338C25.3643 125.138 29.1427 124.714 32.7977 124.304C35.0539 124.05 37.386 123.789 39.46 124.05C40.1713 123.889 41.5184 123.927 43.2071 123.975C45.9965 124.054 50.2119 124.174 50.8996 123.056C50.952 122.971 51.1108 122.713 50.7887 122.11C48.4593 118.512 46.1861 114.798 43.9879 111.206C41.2179 106.68 38.3535 102 35.3544 97.5173C35.3509 97.5122 35.3476 97.507 35.3444 97.5018C34.2429 95.6798 32.2411 96.0134 30.1215 96.3666C29.2246 96.5161 28.2966 96.6705 27.4494 96.645C24.6445 96.8609 21.792 97.1575 19.0329 97.4442C14.8179 97.8824 10.4592 98.3354 6.16725 98.5122C6.15079 98.5129 6.13443 98.5125 6.11836 98.5113C5.98181 98.7213 5.86484 98.9587 5.76935 99.2279C10.807 106.576 16.074 114.012 21.1686 121.205L22.6793 123.338Z" fill="#E0EFFF"/>
<path d="M88.3649 133.152C88.046 133.152 87.7213 133.115 87.3904 133.042C87.1739 132.994 87.0372 132.779 87.0853 132.562C87.1334 132.346 87.3479 132.209 87.5644 132.257C89.1597 132.612 90.6176 131.885 91.8981 130.098C94.131 126.983 95.7785 120.576 96.3053 112.96C96.7746 106.176 96.2237 99.9902 94.9656 97.9177C94.8505 97.728 94.9108 97.481 95.1005 97.366C95.2903 97.251 95.5372 97.3113 95.6521 97.5009C97.0094 99.7366 97.5938 105.972 97.1067 113.016C96.849 116.741 95.8894 125.908 92.551 130.566C91.3191 132.285 89.9143 133.152 88.3649 133.152Z" fill="#E0EFFF"/>
<path d="M45.2214 150.653C44.7458 150.653 44.2718 150.651 43.7976 150.647C43.7884 150.647 43.7792 150.646 43.77 150.646C34.8505 149.953 30.8592 148.902 29.0435 146.766C27.4498 144.891 27.6716 142.263 27.9785 138.624C28.229 135.653 28.541 131.957 28.041 127.27C28.0175 127.05 28.1771 126.852 28.3978 126.828C28.6176 126.804 28.8162 126.965 28.8397 127.185C29.3478 131.948 29.0323 135.687 28.7789 138.692C28.4775 142.265 28.2784 144.626 29.6554 146.246C31.2912 148.17 35.2628 149.179 43.8184 149.844C53.2859 149.925 63.1013 149.282 70.7902 144.116C71.4748 142.651 71.5659 140.797 71.6624 138.837C71.7461 137.137 71.8326 135.379 72.3363 133.831C72.405 133.62 72.6316 133.504 72.8425 133.573C73.0534 133.642 73.1688 133.868 73.1001 134.079C72.6295 135.525 72.5458 137.229 72.4646 138.876C72.3664 140.872 72.2649 142.936 71.4659 144.565C71.4352 144.627 71.3885 144.681 71.3308 144.72C63.8305 149.805 54.4143 150.653 45.2214 150.653Z" fill="#E0EFFF"/>
<path d="M72.0148 195C71.8216 195 71.6513 194.86 71.619 194.663C71.31 192.782 71.4027 190.712 71.4924 188.711C71.6158 185.958 71.7324 183.355 70.9037 181.201C61.4788 175.921 50.9367 177.586 40.7401 179.197C37.3248 179.736 33.7933 180.294 30.3824 180.572C20.0572 181.674 9.89476 179.455 0.0667982 177.309C-3.096 176.618 -6.36643 175.904 -9.58445 175.314C-9.80263 175.274 -9.94701 175.065 -9.90705 174.847C-9.86709 174.629 -9.65845 174.484 -9.43957 174.524C-6.2083 175.116 -2.93104 175.832 0.238288 176.524C10.0038 178.657 20.1014 180.862 30.3071 179.773C33.6978 179.495 37.2144 178.94 40.6149 178.403C50.9921 176.764 61.7226 175.07 71.4232 180.571C71.5018 180.616 71.5632 180.686 71.5971 180.77C72.5475 183.111 72.4191 185.976 72.2949 188.747C72.2069 190.707 72.1162 192.734 72.4117 194.533C72.4475 194.752 72.2993 194.958 72.0804 194.995C72.0584 194.998 72.0364 195 72.0148 195Z" fill="#E0EFFF"/>
<path d="M71.5135 181.345C71.5095 181.345 71.5055 181.345 71.5014 181.345C71.2797 181.338 71.1053 181.153 71.1119 180.932C71.4514 169.538 71.155 157.549 66.7256 147.063C66.6393 146.859 66.7349 146.623 66.9393 146.537C67.1437 146.451 67.3793 146.546 67.4655 146.751C71.9548 157.378 72.2569 169.471 71.9146 180.956C71.9083 181.173 71.7298 181.345 71.5135 181.345Z" fill="#E0EFFF"/>
<path d="M49.2551 77.3286C48.3845 77.3286 47.5695 77.202 46.8304 76.9288C45.2459 76.3431 44.1091 75.1378 43.4511 73.3463C42.7501 71.4371 42.599 68.8412 43.002 65.6306C43.0296 65.4106 43.2308 65.2545 43.4505 65.2821C43.6706 65.3097 43.8266 65.5105 43.799 65.7306C43.4121 68.8127 43.5488 71.2818 44.2052 73.0694C44.7783 74.6299 45.7552 75.6749 47.109 76.1753C49.7094 77.1369 53.8214 76.0863 58.3897 73.2933C62.541 70.7554 66.4408 67.1765 68.5677 63.9534C68.69 63.7682 68.939 63.7172 69.1241 63.8393C69.3093 63.9615 69.3604 64.2106 69.2382 64.3957C65.3911 70.2256 55.7748 77.3286 49.2551 77.3286Z" fill="#E0EFFF"/>
<path d="M26.6331 180.743C26.4121 180.743 26.2325 180.564 26.2315 180.343C26.2247 178.848 26.2074 177.316 26.1905 175.835C26.0813 166.205 25.9682 156.247 28.5553 146.9C28.6145 146.686 28.8355 146.561 29.0496 146.62C29.2633 146.679 29.3886 146.901 29.3295 147.114C26.7727 156.352 26.8851 166.252 26.9937 175.826C27.0105 177.309 27.028 178.842 27.0347 180.339C27.0357 180.561 26.8568 180.742 26.635 180.743C26.6343 180.743 26.6337 180.743 26.6331 180.743Z" fill="#E0EFFF"/>
<path d="M19.22 134.113C16.7703 134.113 15.2329 133.188 14.8496 131.468C14.5235 130.811 14.2039 130.188 13.8947 129.584C11.1385 124.205 9.31772 120.652 13.7493 114.052C13.8729 113.868 14.1224 113.819 14.3067 113.942C14.4908 114.066 14.5399 114.315 14.4163 114.5C10.2485 120.707 11.8901 123.91 14.6096 129.218C14.927 129.837 15.2555 130.478 15.5916 131.157C15.6068 131.187 15.6181 131.22 15.625 131.253C16.0174 133.145 18.1559 133.404 19.8815 133.287C23.4076 132.994 25.4173 130.24 27.3607 127.577C27.6755 127.146 28.0011 126.7 28.3226 126.281C28.4579 126.105 28.71 126.071 28.8857 126.206C29.0617 126.341 29.0949 126.593 28.9599 126.769C28.644 127.181 28.3358 127.603 28.0094 128.051C26.055 130.729 23.8399 133.764 19.9416 134.088C19.6932 134.105 19.4522 134.113 19.22 134.113Z" fill="#E0EFFF"/>
<path d="M93.3004 100.922C93.2132 100.922 93.1253 100.894 93.0515 100.836C92.8776 100.698 92.8481 100.445 92.9858 100.271C96.2011 96.2074 97.1779 90.1057 95.5349 84.3474C94.0647 79.1954 90.7552 75.3503 86.4527 73.7954C82.6663 72.7708 79.3124 70.6145 76.0683 68.529C73.7639 67.0476 71.3809 65.5157 68.87 64.409C65.9473 63.2918 64.0627 61.0209 63.2686 57.6594C62.5423 54.5854 62.8431 51.0534 63.1326 48.6642C63.1593 48.444 63.3574 48.2873 63.5796 48.3138C63.7997 48.3405 63.9566 48.5406 63.9299 48.7608C63.2341 54.5044 63.2004 61.3888 69.1656 63.6621C69.1719 63.6645 69.1782 63.6671 69.1845 63.6698C71.7566 64.8023 74.1693 66.3534 76.5028 67.8534C79.6998 69.9086 83.0056 72.0338 86.6783 73.0242C86.6888 73.027 86.6993 73.0303 86.7097 73.034C91.2656 74.6741 94.7638 78.7173 96.3074 84.1269C98.0203 90.1293 96.9888 96.5064 93.6158 100.77C93.5365 100.87 93.419 100.922 93.3004 100.922Z" fill="#E0EFFF"/>
<path d="M49.5834 75.0188C48.9005 75.0188 48.2446 74.9133 47.6394 74.6699C44.8841 73.5614 43.9322 70.0104 44.8105 64.1155C44.8432 63.8961 45.0476 63.745 45.2669 63.7774C45.4863 63.8102 45.6376 64.0145 45.6049 64.2339C45.1725 67.1357 45.1976 69.4491 45.6794 71.11C46.0945 72.5414 46.8549 73.4884 47.9391 73.9247C50.0381 74.7692 53.3946 73.7822 57.3908 71.1457C60.8282 68.8779 64.3513 65.5775 66.3664 62.7373C66.4949 62.5563 66.7457 62.5139 66.9264 62.6422C67.1073 62.7705 67.15 63.0212 67.0216 63.2021C64.9536 66.1167 61.3469 69.498 57.8331 71.8161C55.8541 73.1218 52.4796 75.0188 49.5834 75.0188Z" fill="#E0EFFF"/>
<path d="M76.2327 173.514C76.2143 173.514 76.1958 173.512 76.177 173.51C75.9573 173.479 75.8039 173.277 75.8344 173.057C77.4257 161.587 75.8905 151.947 71.2712 144.406C71.1555 144.217 71.2147 143.969 71.4039 143.853C71.5931 143.738 71.8403 143.797 71.9561 143.986C74.4636 148.08 76.098 152.847 76.8141 158.156C77.4351 162.76 77.3731 167.81 76.63 173.167C76.6022 173.368 76.43 173.514 76.2327 173.514Z" fill="#E0EFFF"/>
<path d="M76.8847 98.7133C76.7942 98.7133 76.7033 98.6829 76.6282 98.6206C72.6623 95.3257 70.5723 90.1871 70.894 84.5221C71.2376 78.4734 74.2394 73.0309 78.924 69.9632C79.1098 69.8416 79.3584 69.8938 79.48 70.0792C79.6015 70.2648 79.5495 70.5138 79.364 70.6352C74.8918 73.5639 72.0252 78.7723 71.6961 84.5677C71.3889 89.9755 73.3738 94.8725 77.1415 98.0028C77.3121 98.1446 77.3356 98.3978 77.1938 98.5684C77.1144 98.664 77 98.7133 76.8847 98.7133Z" fill="#E0EFFF"/>
<path d="M17.4969 96.0025C17.4812 96.0025 17.4655 96.0016 17.4494 95.9997C17.2291 95.9738 17.0716 95.7742 17.0975 95.5539C17.1244 95.326 17.156 95.1004 17.1866 94.8822C17.331 93.854 17.4674 92.8829 17.0831 91.7962C15.4436 87.3881 16.0676 82.2771 18.7547 78.1307C21.4132 74.0285 25.5926 71.5038 30.2216 71.2038C30.4428 71.1891 30.6339 71.3573 30.6483 71.5786C30.6627 71.8 30.4949 71.9909 30.2736 72.0053C25.9005 72.2886 21.9478 74.6805 19.4288 78.5674C16.8791 82.5019 16.2845 87.3448 17.8382 91.5222C18.2901 92.8001 18.1334 93.9154 17.9821 94.9938C17.9521 95.2077 17.9211 95.4288 17.8953 95.6478C17.8712 95.8521 17.6977 96.0025 17.4969 96.0025Z" fill="#E0EFFF"/>
<path d="M61.2438 49.9178C60.9375 49.9178 60.617 49.8811 60.2824 49.8076C60.0659 49.76 59.9288 49.5459 59.9763 49.3292C60.0241 49.1126 60.2383 48.9758 60.4548 49.0231C61.4255 49.2364 62.2032 49.0799 62.8323 48.5449C65.2671 46.4746 64.8821 39.451 64.6753 35.6777C64.6433 35.0928 64.6156 34.5872 64.6021 34.1754C64.1638 28.9722 62.1712 27.5443 58.8714 25.1802C58.3722 24.8226 57.856 24.4528 57.3062 24.0431C57.2698 24.0158 57.2381 23.9826 57.2128 23.9449C56.0644 22.235 54.4519 21.2103 52.4198 20.8991C49.5575 20.4613 46.0984 21.5319 43.3819 23.6949C42.4774 24.7951 40.8337 25.427 39.51 25.9359C38.8558 26.1874 37.9685 26.5285 37.8188 26.7443C37.8718 26.8279 38.1463 27.1229 39.5284 27.6546C39.7355 27.7342 39.8387 27.9666 39.7591 28.1735C39.6793 28.3806 39.4471 28.4838 39.24 28.4042C37.6327 27.7859 37.0065 27.3196 37.0066 26.7411C37.0066 26.0378 37.8878 25.6989 39.2218 25.186C40.4692 24.7064 42.0216 24.1095 42.7838 23.1572C42.8023 23.1341 42.8232 23.1131 42.8462 23.0947C45.7374 20.7776 49.4522 19.632 52.5414 20.1051C54.75 20.4433 56.5809 21.5956 57.8406 23.4393C58.3642 23.8286 58.8595 24.1835 59.3392 24.5271C62.7094 26.9417 64.9359 28.5369 65.4033 34.1184C65.4039 34.1252 65.4043 34.1322 65.4045 34.139C65.4176 34.5436 65.4452 35.0487 65.4773 35.6335C65.7067 39.8205 66.0908 46.8284 63.3525 49.1567C62.7569 49.6633 62.0503 49.9178 61.2438 49.9178Z" fill="#E0EFFF"/>
<path d="M77.5375 95.7012C77.4346 95.7012 77.3314 95.6619 77.253 95.5831C74.3236 92.6445 72.9805 88.4547 73.4711 83.7858C74.025 78.5169 76.884 73.605 80.9327 70.9667C81.1185 70.8453 81.3673 70.898 81.4884 71.0839C81.6095 71.2697 81.5571 71.5185 81.3712 71.6396C77.5201 74.1492 74.7991 78.8354 74.27 83.8696C73.805 88.2934 75.0664 92.2519 77.8218 95.0159C77.9784 95.173 77.978 95.4272 77.8209 95.5838C77.7426 95.6622 77.64 95.7012 77.5375 95.7012Z" fill="#E0EFFF"/>
<path d="M87.4968 136.851C86.4027 136.851 85.2105 136.638 83.9841 136.419C82.9354 136.231 81.8509 136.037 80.8297 135.988C74.338 135.65 68.8457 132.354 63.5342 129.166C59.7572 126.899 55.8516 124.555 51.6191 123.295C51.4066 123.232 51.2856 123.008 51.3488 122.796C51.4122 122.583 51.6355 122.462 51.8484 122.525C56.178 123.815 60.1279 126.185 63.9476 128.477C69.1747 131.615 74.5797 134.859 80.8701 135.186C81.9415 135.238 83.0517 135.436 84.1253 135.628C86.383 136.031 88.5158 136.412 89.9026 135.389C90.8099 134.72 91.3641 133.479 91.5969 131.596C91.6241 131.376 91.8253 131.22 92.0448 131.247C92.2649 131.274 92.4213 131.475 92.3941 131.695C92.1328 133.809 91.4738 135.229 90.3795 136.036C89.5539 136.645 88.5726 136.851 87.4968 136.851Z" fill="#E0EFFF"/>
<path d="M25.3273 95.2997C25.1378 95.2998 24.9693 95.1652 24.933 94.9721C24.2229 91.1891 24.5914 87.0279 26.0282 82.604C27.1936 79.0159 29.0655 75.2355 31.5916 71.3681C31.5997 71.3558 31.6083 71.344 31.6176 71.3327C33.5852 68.9397 36.5348 67.6909 39.3873 66.4834C41.6121 65.5415 43.9126 64.5676 45.6478 63.0676C45.8155 62.9224 46.0692 62.941 46.2143 63.1087C46.3593 63.2765 46.341 63.5301 46.1732 63.6752C44.3424 65.258 41.9827 66.257 39.7005 67.2231C36.9443 68.3898 34.0946 69.5962 32.252 71.8259C26.6624 80.3898 24.4654 88.1275 25.7226 94.824C25.7634 95.042 25.62 95.2519 25.402 95.2928C25.3768 95.2974 25.3519 95.2997 25.3273 95.2997Z" fill="#E0EFFF"/>
<path d="M71.4132 119.296C71.4085 119.296 71.4038 119.296 71.399 119.296C71.1774 119.288 71.0037 119.102 71.0115 118.88C71.1097 116.035 72.3935 113.491 73.6351 111.031C74.2124 109.887 74.7586 108.805 75.1885 107.702C74.851 104.901 75.5691 102.223 76.2638 99.633C77.0443 96.7228 77.7816 93.9739 77.1452 91.0681C77.0977 90.8514 77.235 90.6374 77.4516 90.5899C77.6682 90.5421 77.8825 90.6795 77.9299 90.8962C78.6081 93.993 77.8107 96.966 77.0397 99.841C76.3566 102.387 75.6505 105.021 75.9978 107.701C76.0063 107.767 75.9984 107.834 75.9746 107.896C75.5249 109.07 74.9288 110.251 74.3524 111.393C73.1499 113.775 71.9065 116.239 71.8145 118.908C71.8068 119.125 71.6285 119.296 71.4132 119.296Z" fill="#E0EFFF"/>
<path d="M48.2757 63.7487C46.5973 63.7487 45.0765 63.183 43.8558 62.0491C43.8078 62.0045 43.7715 61.9489 43.75 61.8872C43.4211 60.9441 42.8646 60.0171 42.3266 59.1207C41.6785 58.041 41.0083 56.9245 40.7125 55.7471C40.692 55.6654 40.6977 55.5794 40.7288 55.5011C41.8185 52.7547 42.0391 50.0086 41.3191 48.1551C41.2388 47.9483 41.3413 47.7156 41.5481 47.6353C41.7548 47.555 41.9875 47.6576 42.0678 47.8642C43.1767 50.7185 42.0979 54.1891 41.5239 55.6736C41.8053 56.6915 42.3937 57.6718 43.0152 58.7074C43.5565 59.6091 44.1156 60.5405 44.4738 61.5258C46.684 63.5102 50.0297 63.4014 53.4471 61.2269C57.6052 58.5811 61.0754 53.2601 59.6849 48.9358C59.6169 48.7247 59.7331 48.4985 59.9442 48.4305C60.1557 48.3625 60.3816 48.4788 60.4495 48.6899C61.9588 53.3838 58.2937 59.0949 53.8783 61.9045C51.9476 63.1332 50.0259 63.7486 48.2757 63.7487Z" fill="#E0EFFF"/>
<path d="M24.5247 92.388C24.3623 92.388 24.2094 92.2889 24.1489 92.128C22.9265 88.8876 23.1929 84.4585 24.8799 79.9763C26.4987 75.6754 29.1767 72.0428 32.0435 70.2594C32.2318 70.1422 32.4795 70.2 32.5967 70.3883C32.7139 70.5767 32.6561 70.8243 32.4679 70.9415C27.003 74.3409 22.3519 85.0882 24.9004 91.8446C24.9787 92.0521 24.8739 92.2838 24.6665 92.3621C24.6197 92.3797 24.5718 92.388 24.5247 92.388Z" fill="#E0EFFF"/>
<path d="M48.4202 194.598C48.2119 194.598 48.0358 194.438 48.0201 194.227C46.779 177.616 45.6005 176.997 43.4613 175.872C41.9263 175.066 39.8242 173.961 37.0077 167.448C36.9197 167.244 37.0134 167.008 37.2169 166.92C37.4203 166.832 37.657 166.926 37.745 167.129C40.449 173.382 42.3264 174.369 43.835 175.161C46.2285 176.419 47.5469 177.112 48.8212 194.167C48.8377 194.388 48.6718 194.581 48.4506 194.597C48.4403 194.598 48.4302 194.598 48.4202 194.598Z" fill="#E0EFFF"/>
<path d="M62.8782 47.0057C62.8129 47.0057 62.7466 46.9898 62.6853 46.956C62.4908 46.8493 62.4198 46.6051 62.5266 46.4107C64.0454 43.6447 63.9862 41.774 63.4244 40.9457C63.1487 40.5392 62.7386 40.3568 62.2399 40.4189C61.2245 40.5447 59.6386 41.7894 58.5112 44.8831C58.4655 45.0087 58.3602 45.1033 58.2303 45.1354C58.1007 45.1674 57.9633 45.133 57.8643 45.0433C56.9159 44.1842 56.5466 43.0471 56.1894 41.9473C55.7547 40.6087 55.344 39.3442 53.8957 38.7148C53.8841 38.7097 53.8727 38.704 53.8615 38.6979C52.3159 37.8435 52.3157 36.32 52.3156 34.976C52.3154 33.351 52.234 32.3347 50.632 31.933C50.4168 31.879 50.2862 31.6609 50.3402 31.4458C50.3941 31.2306 50.6127 31.1001 50.8274 31.1539C53.1184 31.7285 53.1186 33.4537 53.1188 34.9758C53.119 36.2543 53.1191 37.3592 54.2345 37.9861C55.9996 38.7622 56.4844 40.2552 56.9533 41.6992C57.2269 42.5415 57.4882 43.3461 57.9922 44.0011C59.0522 41.4369 60.5774 39.8155 62.1411 39.6217C62.9348 39.523 63.646 39.8415 64.0891 40.4948C64.9895 41.8223 64.6685 44.1784 63.2304 46.7972C63.1575 46.9304 63.0201 47.0057 62.8782 47.0057Z" fill="#E0EFFF"/>
<path d="M31.9544 38.5719C31.9047 38.5719 31.8541 38.5627 31.8051 38.543C31.5992 38.4605 31.4991 38.2267 31.5817 38.0208C33.3047 33.7206 36.1923 34.2215 38.9849 34.7057C41.2185 35.093 43.3283 35.4588 45.1451 33.686C45.1514 33.6798 45.1581 33.6737 45.1648 33.668C46.7362 32.3261 48.2561 31.5129 49.8098 31.1829C51.2992 30.5355 52.3787 29.3467 53.521 28.0887C54.8377 26.6383 56.1995 25.1386 58.2462 24.5319C58.4584 24.4691 58.6824 24.5902 58.7454 24.8028C58.8085 25.0155 58.6872 25.239 58.4746 25.302C56.6432 25.8448 55.4155 27.197 54.1157 28.6286C52.9569 29.9048 51.7587 31.2244 50.0893 31.9371C50.0647 31.9475 50.0392 31.9556 50.013 31.961C48.5645 32.2606 47.1925 32.9945 45.6963 34.2702C43.5876 36.3192 41.0696 35.8823 38.8475 35.497C36.1436 35.0281 33.8084 34.623 32.3272 38.3194C32.2644 38.4765 32.1136 38.5719 31.9544 38.5719Z" fill="#E0EFFF"/>
<path d="M75.4293 183.855C75.4235 183.855 75.4177 183.855 75.4119 183.855C75.1902 183.845 75.0183 183.658 75.0278 183.436C75.1302 181.049 75.0865 178.508 75.0441 176.051C75.0069 173.886 74.9683 171.648 75.0276 169.487C75.0337 169.269 75.2122 169.096 75.4289 169.096C75.4326 169.096 75.4363 169.096 75.44 169.096C75.6618 169.102 75.8366 169.287 75.8305 169.508C75.7717 171.652 75.8101 173.881 75.8472 176.037C75.8898 178.506 75.9337 181.059 75.8303 183.471C75.821 183.687 75.6432 183.855 75.4293 183.855Z" fill="#E0EFFF"/>
<path d="M68.3004 146.304C68.2993 146.304 68.2983 146.304 68.2973 146.304C68.0755 146.303 67.8971 146.122 67.8987 145.9C67.9298 141.74 68.3956 136.938 69.2103 132.378C69.2492 132.16 69.4583 132.014 69.6762 132.053C69.8946 132.092 70.04 132.301 70.0009 132.519C69.1941 137.036 68.7327 141.79 68.7019 145.906C68.7002 146.127 68.5207 146.304 68.3004 146.304Z" fill="#E0EFFF"/>
<path d="M27.6366 194.397C27.4362 194.397 27.2629 194.248 27.2383 194.044C26.8409 190.743 26.6765 187.379 26.5175 184.126C26.4605 182.957 26.4015 181.749 26.3325 180.565C26.3196 180.344 26.4887 180.154 26.7101 180.141C26.9327 180.127 27.1215 180.297 27.1344 180.519C27.2035 181.706 27.2626 182.916 27.3198 184.087C27.4781 187.326 27.6418 190.675 28.0359 193.948C28.0624 194.168 27.9054 194.368 27.6852 194.395C27.6687 194.397 27.6526 194.397 27.6366 194.397Z" fill="#E0EFFF"/>
<path d="M41.1911 46.8049C41.1219 46.8049 41.0517 46.7871 40.9878 46.7493C40.5163 46.4717 39.8802 46.2831 39.2067 46.0835C37.657 45.6243 35.7299 45.0533 35.8722 42.9832C35.8105 41.4437 35.8608 39.8833 35.9094 38.3741C35.9468 37.2145 35.9855 36.0155 35.9706 34.8621C35.9678 34.6403 36.1452 34.4583 36.367 34.4553C36.5858 34.4533 36.7709 34.6299 36.7738 34.8517C36.7887 36.0232 36.7499 37.2315 36.7122 38.3999C36.6638 39.9022 36.6137 41.4556 36.6757 42.9731C36.6763 42.9887 36.676 43.0044 36.6748 43.0199C36.5724 44.3658 37.6493 44.7842 39.4349 45.3134C40.1251 45.518 40.8389 45.7295 41.3953 46.0571C41.5864 46.1697 41.6501 46.4159 41.5376 46.607C41.4627 46.7341 41.3287 46.8049 41.1911 46.8049Z" fill="#E0EFFF"/>
<path d="M75.8307 195C75.8272 195 75.8236 195 75.8201 195C75.5984 194.994 75.4233 194.809 75.429 194.588C75.4668 193.145 75.3969 191.671 75.3293 190.246C75.2343 188.242 75.136 186.17 75.3303 184.118C75.3513 183.897 75.549 183.736 75.768 183.757C75.9888 183.777 76.1508 183.973 76.1299 184.194C75.9409 186.189 76.0379 188.232 76.1317 190.208C76.1999 191.648 76.2705 193.137 76.2321 194.609C76.2262 194.827 76.0476 195 75.8307 195Z" fill="#E0EFFF"/>
<path d="M31.8536 39.7767C31.6673 39.7767 31.5003 39.6464 31.4608 39.4568C30.9324 36.9193 31.2571 33.3715 33.1733 31.1656C34.3164 29.8498 35.8817 29.2167 37.7035 29.3355C37.9248 29.3498 38.0925 29.541 38.0781 29.7623C38.0636 29.9837 37.8721 30.1509 37.6513 30.137C36.0678 30.0338 34.7657 30.5573 33.7795 31.6923C32.0438 33.6905 31.7591 36.9495 32.2471 39.293C32.2923 39.5102 32.1529 39.7229 31.9357 39.768C31.9082 39.7739 31.8807 39.7767 31.8536 39.7767Z" fill="#E0EFFF"/>
<path d="M53.5407 70.3997C53.4692 70.3997 53.3968 70.3806 53.3313 70.3406C53.1422 70.2247 53.0827 69.9775 53.1986 69.7883C53.8233 68.768 54.3865 67.6621 54.9312 66.5926C55.8392 64.8099 56.7782 62.9664 58.0495 61.4104C58.1899 61.2386 58.443 61.2133 58.6146 61.3535C58.7863 61.4938 58.8118 61.7469 58.6715 61.9187C57.4547 63.4078 56.5357 65.2122 55.6469 66.9572C55.0952 68.0404 54.5247 69.1605 53.8836 70.2077C53.8078 70.3314 53.6759 70.3997 53.5407 70.3997Z" fill="#E0EFFF"/>
<path d="M41.0915 55.9415C40.9691 55.9415 40.8483 55.8858 40.7695 55.7803C38.853 53.2153 37.9469 50.2905 38.2834 47.7561C38.3126 47.5362 38.5149 47.3819 38.7343 47.4108C38.9542 47.44 39.1087 47.6419 39.0795 47.8618C38.7704 50.1901 39.6209 52.9011 41.4128 55.2995C41.5455 55.4773 41.5091 55.7289 41.3314 55.8617C41.2594 55.9156 41.1751 55.9415 41.0915 55.9415Z" fill="#E0EFFF"/>
<path d="M44.5049 46.3029C44.3442 46.3029 44.1925 46.2058 44.1306 46.0471C44.05 45.8405 44.1522 45.6076 44.3588 45.527C44.9106 45.3118 45.4525 45.008 46.026 44.6864C47.3775 43.9287 48.7753 43.1447 50.4132 43.5007C50.63 43.5476 50.7675 43.7616 50.7206 43.9783C50.6734 44.1951 50.4595 44.3326 50.2428 44.2856C48.9022 43.9947 47.6961 44.6709 46.4189 45.387C45.8465 45.7079 45.2545 46.0398 44.6506 46.2754C44.6028 46.2941 44.5534 46.3029 44.5049 46.3029Z" fill="#E0EFFF"/>
<path d="M51.0313 120.099C50.8989 120.099 50.7693 120.034 50.6926 119.914C48.548 116.56 47.2025 113.646 46.3301 110.465C46.1577 109.844 45.6529 109.621 45.0686 109.363C44.4567 109.093 43.7634 108.787 43.5225 107.96C43.2479 107.084 42.6701 106.377 42.0583 105.629C41.3845 104.804 40.6877 103.952 40.4007 102.829C40.3459 102.614 40.4756 102.395 40.6906 102.34C40.9059 102.285 41.1241 102.415 41.1791 102.63C41.4219 103.581 42.0331 104.329 42.6801 105.12C43.3132 105.895 43.9679 106.696 44.2913 107.728C44.4233 108.181 44.7958 108.365 45.393 108.629C46.0332 108.911 46.83 109.263 47.1045 110.251C47.955 113.352 49.2702 116.198 51.3695 119.481C51.489 119.668 51.4343 119.916 51.2475 120.036C51.1802 120.079 51.1053 120.099 51.0313 120.099Z" fill="#E0EFFF"/>
<path d="M79.9475 118.141C79.8224 118.141 79.6991 118.083 79.6207 117.974C77.733 115.338 75.8832 112.419 75.1368 108.938C75.0903 108.721 75.2284 108.508 75.4452 108.461C75.6624 108.415 75.8757 108.553 75.9221 108.77C76.6378 112.107 78.4365 114.941 80.2737 117.506C80.4028 117.686 80.3614 117.937 80.1811 118.066C80.1103 118.117 80.0285 118.141 79.9475 118.141Z" fill="#E0EFFF"/>
<path d="M74.6255 118.794C74.5722 118.794 74.518 118.783 74.4659 118.761C74.2625 118.672 74.169 118.436 74.2573 118.232C74.9873 116.55 76.004 115.011 76.9011 113.653C77.0235 113.468 77.2726 113.417 77.4576 113.539C77.6426 113.661 77.6935 113.91 77.5713 114.096C76.6923 115.426 75.6961 116.934 74.9942 118.552C74.9285 118.704 74.7807 118.794 74.6255 118.794Z" fill="#E0EFFF"/>
<path d="M47.5171 113.874C47.406 113.874 47.2953 113.828 47.2159 113.738C45.9754 112.334 44.6604 110.677 44.3128 109.038C44.2668 108.821 44.4053 108.607 44.6223 108.562C44.8401 108.515 45.0524 108.654 45.0985 108.871C45.4075 110.328 46.6466 111.88 47.8179 113.207C47.9648 113.373 47.9491 113.627 47.7827 113.774C47.7065 113.841 47.6115 113.874 47.5171 113.874Z" fill="#E0EFFF"/>
<path d="M47.3156 69.2953C47.1249 69.2953 46.9556 69.1588 46.9207 68.9645C46.7706 68.1263 46.722 67.2768 46.6751 66.4553C46.6388 65.82 46.6013 65.1632 46.5164 64.5291C46.487 64.3093 46.6414 64.1072 46.8613 64.0778C47.0809 64.0486 47.2832 64.2028 47.3126 64.4226C47.4015 65.0869 47.4399 65.7592 47.4771 66.4094C47.5228 67.2072 47.5699 68.0321 47.7115 68.8228C47.7507 69.0412 47.6053 69.2498 47.387 69.289C47.363 69.2932 47.3391 69.2953 47.3156 69.2953Z" fill="#E0EFFF"/>
<path d="M54.0426 120.902C53.8414 120.902 53.6678 120.752 53.6441 120.547C53.4868 119.186 52.8934 119.185 51.0402 119.387L50.974 119.394C50.7544 119.418 50.5553 119.259 50.5313 119.038C50.5073 118.818 50.6667 118.619 50.8872 118.595L50.9531 118.588C52.6155 118.407 54.1855 118.236 54.442 120.455C54.4675 120.675 54.3096 120.874 54.0891 120.9C54.0737 120.902 54.058 120.902 54.0426 120.902Z" fill="#E0EFFF"/>
<path d="M42.9883 55.9283C42.4692 55.9283 41.9315 55.8075 41.3875 55.4834C41.1971 55.37 41.1345 55.1234 41.2481 54.9329C41.3617 54.7423 41.6078 54.6798 41.7987 54.7934C42.8226 55.4036 43.753 55.0995 45.0553 54.5659C45.2611 54.4818 45.4952 54.5801 45.5793 54.7854C45.6634 54.9906 45.5651 55.2252 45.3599 55.3093C44.6577 55.5968 43.8485 55.9283 42.9883 55.9283Z" fill="#E0EFFF"/>
<path d="M46.6656 48.0367C46.3831 48.0367 46.0894 47.9918 45.7824 47.8884C45.5722 47.8176 45.4591 47.5898 45.5299 47.3796C45.6006 47.1695 45.8283 47.0562 46.0386 47.1271C47.0868 47.4798 47.9736 46.8739 48.9123 46.2321C49.0442 46.1419 49.1747 46.0527 49.304 45.9676C49.4894 45.8455 49.7382 45.8968 49.8604 46.082C49.9824 46.2673 49.9311 46.5163 49.7458 46.6382C49.6203 46.7209 49.4937 46.8075 49.3656 46.8952C48.5726 47.4375 47.6962 48.0367 46.6656 48.0367Z" fill="#E0EFFF"/>
<path d="M34.5652 28.8328C34.426 28.8328 34.2906 28.7603 34.2164 28.6309C34.106 28.4384 34.1726 28.193 34.365 28.0828C35.1384 27.6393 35.968 27.6264 36.6997 27.6152C37.2211 27.6071 37.7137 27.5994 38.1486 27.4492C38.3584 27.3766 38.587 27.4882 38.6593 27.6977C38.7318 27.9074 38.6205 28.1361 38.4108 28.2085C37.8544 28.4007 37.2738 28.4097 36.7122 28.4184C36.0158 28.4292 35.3582 28.4394 34.7645 28.7798C34.7016 28.8156 34.633 28.8328 34.5652 28.8328Z" fill="#E0EFFF"/>
<path d="M44.3036 59.3554C44.1151 59.3554 43.9469 59.2219 43.9097 59.0299C43.8676 58.8122 44.0099 58.6015 44.2277 58.5593L47.3402 57.9568C47.5574 57.9148 47.7686 58.057 47.8108 58.2748C47.853 58.4926 47.7106 58.7033 47.4928 58.7454L44.3803 59.3478C44.3546 59.3529 44.3289 59.3554 44.3036 59.3554Z" fill="#E0EFFF"/>
<path d="M40.3658 48.6715C40.1966 48.6715 40.0215 48.6498 39.8417 48.6055C38.4736 48.269 37.2028 46.7447 37.1754 45.4075C37.1709 45.1857 37.3469 45.0022 37.5687 44.9977C37.7945 44.9953 37.9739 45.1692 37.9784 45.391C37.9981 46.3513 39.0351 47.58 40.0334 47.8255C40.6014 47.965 41.0415 47.7594 41.3415 47.2137C41.4484 47.0193 41.6925 46.9484 41.887 47.0553C42.0814 47.1621 42.1523 47.4064 42.0453 47.6007C41.662 48.2983 41.0662 48.6715 40.3658 48.6715Z" fill="#E0EFFF"/>
<path d="M17.9983 93.0907C17.9012 93.0907 17.8039 93.0558 17.7269 92.985C17.5634 92.835 17.5526 92.5809 17.7025 92.4175C17.9492 92.1486 18.0736 91.7921 18.2054 91.4146C18.3009 91.1408 18.3997 90.8578 18.5512 90.5859C18.6593 90.3921 18.9039 90.3227 19.0975 90.4306C19.2913 90.5387 19.3607 90.7833 19.2528 90.9769C19.135 91.1881 19.0518 91.4266 18.9636 91.6793C18.8109 92.117 18.6529 92.5697 18.2943 92.9606C18.215 93.0469 18.1068 93.0907 17.9983 93.0907Z" fill="#E0EFFF"/>
<path d="M36.8746 30.0376C36.7415 30.0376 36.6113 29.9716 36.5348 29.8508C36.4044 29.6448 36.1827 29.5746 35.8319 29.4771C35.468 29.3761 35.0558 29.2615 34.7532 28.8826C34.6147 28.7093 34.6429 28.4566 34.8163 28.3181C34.9895 28.1797 35.2423 28.208 35.3807 28.3813C35.5211 28.5571 35.7647 28.6248 36.0468 28.7032C36.4319 28.8101 36.9109 28.9432 37.2135 29.4212C37.3322 29.6086 37.2764 29.8566 37.089 29.9753C37.0224 30.0174 36.948 30.0376 36.8746 30.0376Z" fill="#E0EFFF"/>
</g>
<defs>
<clipPath id="clip0_59_1118">
<rect width="137" height="213" rx="10" fill="white"/>
</clipPath>
</defs>
</svg>
