<svg width="282" height="213" viewBox="0 0 282 213" fill="none" xmlns="http://www.w3.org/2000/svg">
<g clip-path="url(#clip0_59_1360)">
<rect width="282" height="213" rx="10" fill="#BCD3D0"/>
<path d="M182.117 50.86H176.757C176.277 50.86 175.95 50.7467 175.777 50.52C175.604 50.2933 175.517 50.0467 175.517 49.78C175.517 49.5667 176.05 47.4867 177.117 43.54L178.677 37.74C178.717 37.5533 178.737 37.3667 178.737 37.18C178.737 36.8333 178.657 36.5067 178.497 36.2C178.257 35.7333 177.877 35.42 177.357 35.26C177.184 35.22 177.017 35.2 176.857 35.2C176.524 35.2 176.21 35.2867 175.917 35.46C175.477 35.74 175.17 36.1533 174.997 36.7C174.797 37.5533 173.984 40.6133 172.557 45.88C172.144 47.2933 171.33 48.48 170.117 49.44C168.904 50.3867 167.61 50.86 166.237 50.86H162.297C160.924 50.86 159.944 50.46 159.357 49.66C158.77 48.8467 158.477 48.02 158.477 47.18C158.477 46.7667 158.53 46.3333 158.637 45.88L160.237 39.94C160.37 39.5133 160.59 39.3 160.897 39.3C161.217 39.3 161.544 39.4533 161.877 39.76L164.617 42.22L163.137 47.76C163.084 47.9467 163.057 48.1267 163.057 48.3C163.057 48.6333 163.15 48.92 163.337 49.16C163.617 49.5467 164.03 49.74 164.577 49.74C165.084 49.7267 165.577 49.5533 166.057 49.22C166.537 48.8867 166.877 48.3933 167.077 47.74L169.877 37.24C170.277 35.8533 170.944 34.8733 171.877 34.3C172.824 33.7133 173.717 33.42 174.557 33.42C174.97 33.42 175.397 33.48 175.837 33.6L182.637 35.56C183.397 35.8267 183.777 36.3133 183.777 37.02C183.777 37.18 183.757 37.3533 183.717 37.54L182.537 41.9L180.977 47.76C180.937 47.9467 180.917 48.12 180.917 48.28C180.917 48.6133 181.01 48.9067 181.197 49.16C181.464 49.5467 181.87 49.74 182.417 49.74L182.117 50.86ZM161.037 55.3C161.53 55.3 161.997 55.1267 162.437 54.78C162.877 54.4333 163.17 54.0067 163.317 53.5C163.357 53.3267 163.377 53.16 163.377 53C163.377 52.7067 163.297 52.4467 163.137 52.22C162.884 51.8733 162.504 51.7 161.997 51.7C161.504 51.7 161.037 51.8733 160.597 52.22C160.157 52.5667 159.864 52.9933 159.717 53.5C159.677 53.66 159.657 53.8133 159.657 53.96C159.657 54.2667 159.744 54.54 159.917 54.78C160.17 55.1267 160.544 55.3 161.037 55.3ZM165.077 55.3C165.57 55.3 166.037 55.1267 166.477 54.78C166.917 54.4333 167.21 54.0067 167.357 53.5C167.397 53.34 167.417 53.1867 167.417 53.04C167.417 52.7333 167.33 52.46 167.157 52.22C166.904 51.8733 166.53 51.7 166.037 51.7C165.544 51.7 165.077 51.8733 164.637 52.22C164.197 52.5667 163.904 52.9933 163.757 53.5C163.717 53.6733 163.697 53.8333 163.697 53.98C163.697 54.2867 163.777 54.5533 163.937 54.78C164.19 55.1267 164.57 55.3 165.077 55.3ZM197.381 45.88L197.301 46.12L196.861 47.78C196.714 48.4333 196.794 48.9267 197.101 49.26C197.421 49.58 197.828 49.74 198.321 49.74L198.021 50.86H196.561C195.734 50.86 195.108 50.5667 194.681 49.98C194.614 49.9 194.561 49.82 194.521 49.74C193.428 50.4867 192.274 50.86 191.061 50.86H182.121V49.74H182.421H189.381C189.928 49.74 190.441 49.5533 190.921 49.18C191.401 48.7933 191.721 48.32 191.881 47.76L194.561 37.76C194.694 37.2 194.634 36.6867 194.381 36.22C194.141 35.74 193.768 35.42 193.261 35.26C192.741 35.1267 192.254 35.2 191.801 35.48C191.361 35.7467 191.061 36.1533 190.901 36.7C190.368 38.7133 189.834 40.72 189.301 42.72L188.861 44.32C188.728 44.7867 188.481 45.16 188.121 45.44C187.761 45.72 187.341 45.86 186.861 45.86H183.461L184.181 43.18C184.714 41.2067 185.241 39.2267 185.761 37.24C186.174 35.8533 186.941 34.8133 188.061 34.12C189.194 33.4267 190.421 33.2533 191.741 33.6L193.981 34.24C195.501 34.6933 197.021 35.1333 198.541 35.56C199.461 35.88 199.821 36.54 199.621 37.54C198.874 40.3133 198.128 43.0933 197.381 45.88ZM205.28 49.74C205.826 49.74 206.34 49.5533 206.82 49.18C207.3 48.7933 207.62 48.32 207.78 47.76L210.18 38.78C210.22 38.5933 210.24 38.42 210.24 38.26C210.24 37.9267 210.153 37.6333 209.98 37.38C209.7 36.9933 209.286 36.8 208.74 36.8C208.206 36.8 207.7 36.9933 207.22 37.38C206.74 37.7533 206.413 38.2133 206.24 38.76L203.3 49.74H205.28ZM198.02 49.74H198.32C198.573 48.78 198.833 47.8133 199.1 46.84C199.953 43.6267 200.813 40.42 201.68 37.22C201.813 36.7533 202.06 36.38 202.42 36.1C202.793 35.82 203.213 35.68 203.68 35.68H211.02C212.393 35.68 213.426 36.16 214.12 37.12C214.826 38.0667 215.013 39.2467 214.68 40.66C214.653 40.74 214.6 40.9333 214.52 41.24C214.413 41.6133 214.286 42.0667 214.14 42.6C214.006 43.1333 213.866 43.6667 213.72 44.2C213.573 44.7333 213.453 45.1867 213.36 45.56C213.266 45.92 213.213 46.1 213.2 46.1C212.746 47.46 211.92 48.5933 210.72 49.5C209.533 50.4067 208.273 50.86 206.94 50.86H203C202.866 51.34 202.613 51.72 202.24 52C201.88 52.28 201.46 52.42 200.98 52.42H197.6C197.733 51.9 197.873 51.38 198.02 50.86V49.74ZM230.467 50.86C230.281 50.86 230.101 50.8467 229.927 50.82C229.474 52.0067 228.714 53.02 227.647 53.86C226.434 54.82 225.141 55.3 223.767 55.3H219.847C218.474 55.3 217.434 54.82 216.727 53.86C216.034 52.9 215.861 51.72 216.207 50.32L218.987 39.94C219.121 39.5 219.347 39.2867 219.667 39.3C219.987 39.3133 220.307 39.4667 220.627 39.76L223.367 42.22L220.687 52.2C220.554 52.76 220.614 53.22 220.867 53.58C221.134 53.9533 221.547 54.1467 222.107 54.16C222.614 54.16 223.107 53.9933 223.587 53.66C224.067 53.34 224.401 52.8533 224.587 52.2L229.847 32.58C229.981 32.1133 230.227 31.74 230.587 31.46C230.961 31.18 231.387 31.04 231.867 31.04H235.247L232.487 41.36L230.767 47.78C230.621 48.4333 230.701 48.9267 231.007 49.26C231.327 49.58 231.727 49.74 232.207 49.74L231.907 50.86H230.467ZM245.186 54.16L250.966 32.58C251.1 32.1133 251.346 31.74 251.706 31.46C252.08 31.18 252.506 31.04 252.986 31.04H256.366L251.506 49.16C251.093 50.5733 250.28 51.76 249.066 52.72C247.853 53.68 246.56 54.16 245.186 54.16ZM256.786 29.44H250.926C250.993 29.2133 251.06 28.9933 251.126 28.78C251.193 28.5533 251.326 28.44 251.526 28.44H252.426C252.28 28.2267 252.206 27.98 252.206 27.7C252.206 27.4867 252.24 27.2733 252.306 27.06C252.373 26.8333 252.44 26.5933 252.506 26.34C252.653 25.8333 252.9 25.4733 253.246 25.26C253.593 25.0467 253.92 24.94 254.226 24.94C254.373 24.94 254.526 24.96 254.686 25L257.186 25.72C257.466 25.8133 257.606 25.9933 257.606 26.26C257.606 26.3 257.46 26.8933 257.166 28.04H255.906C255.613 28.04 255.466 27.9067 255.466 27.64C255.466 27.5733 255.553 27.2 255.726 26.52C255.74 26.4533 255.746 26.38 255.746 26.3C255.746 26.18 255.72 26.0667 255.666 25.96C255.533 25.72 255.333 25.6 255.066 25.6C254.946 25.6 254.833 25.6333 254.726 25.7C254.566 25.7933 254.453 25.94 254.386 26.14C254.32 26.42 254.246 26.6933 254.166 26.96C254.02 27.5333 253.946 27.8533 253.946 27.92C253.946 28.04 253.986 28.16 254.066 28.28C254.16 28.3867 254.306 28.44 254.506 28.44H257.066L256.786 29.44ZM237.026 50.86H231.906V49.74H235.366C235.913 49.74 236.426 49.5533 236.906 49.18C237.386 48.7933 237.706 48.32 237.866 47.76L240.546 37.74C240.586 37.5533 240.606 37.3667 240.606 37.18C240.606 36.8333 240.526 36.5067 240.366 36.2C240.126 35.7333 239.753 35.42 239.246 35.26C239.073 35.22 238.906 35.2 238.746 35.2C238.413 35.2 238.093 35.2867 237.786 35.46C237.346 35.74 237.046 36.1533 236.886 36.7C236.793 36.94 236.633 37.06 236.406 37.06H235.606L236.166 35C236.566 33.5333 237.373 32.1867 238.586 30.96C239.813 29.72 241.16 28.8867 242.626 28.46L250.606 26.32L249.666 29.82C249.36 30.8867 248.706 31.58 247.706 31.9L239.466 34.1L240.126 34.3L244.526 35.56C245.273 35.8133 245.646 36.3 245.646 37.02C245.646 37.18 245.626 37.3533 245.586 37.54C244.56 41.34 243.82 44.12 243.366 45.88C242.953 47.2933 242.133 48.48 240.906 49.44C239.693 50.3867 238.4 50.86 237.026 50.86Z" fill="#06063F"/>
<path d="M151.675 182.073C151.701 182.028 151.621 181.79 151.604 181.672C151.54 181.383 151.483 181.131 151.435 180.92C151.337 180.494 151.276 180.229 151.258 180.15C151.216 179.983 151.332 180.54 151.643 181.99C147.044 161.294 146.288 157.891 146.288 157.891C146.197 157.551 146.082 157.306 145.959 157.104C145.963 157.1 145.974 157.088 145.974 157.088C146.323 156.705 146.612 156.351 146.844 156.039C147.054 155.709 147.18 155.397 147.276 155.149C147.461 154.647 147.46 154.346 147.317 154.252C147.174 154.159 146.889 154.265 146.515 154.581C146.323 154.737 146.12 154.954 145.879 155.211C145.606 155.446 145.308 155.73 144.985 156.076C144.985 156.076 144.93 156.133 144.819 156.245C144.697 156.344 144.515 156.491 144.274 156.685C143.81 157.093 143.044 157.614 141.966 158.149C140.891 158.694 139.458 159.166 137.724 159.525C135.977 159.838 133.927 160.015 131.62 159.977C122.354 159.768 109.358 156.066 95.017 149.607C80.6543 143.157 64.7196 134.091 49.3333 122.691C41.6749 116.968 34.1093 110.647 27.5418 103.39C24.3103 99.7472 21.2561 95.8537 19.2228 91.5591C18.2199 89.4227 17.4954 87.1685 17.4092 84.9595C17.3389 82.7545 18.0765 80.6986 19.4944 79.0882L19.5129 79.0662L19.6016 78.95C20.3243 78.0083 21.272 76.7725 22.3821 75.3267C22.9054 74.5768 23.6508 73.9287 24.3347 73.1582C25.0545 72.4199 25.7561 71.5885 26.5824 70.8251C29.8794 67.754 34.0651 64.7075 38.4425 62.3293C46.5849 58.0887 56.2447 55.2899 66.4548 54.5564C76.6543 53.661 87.3348 54.7092 97.6712 57.1499C102.833 58.4261 107.91 60.0732 112.82 62.0581C114.05 62.5464 115.237 63.1299 116.446 63.6584C117.655 64.189 118.852 64.7365 120.003 65.3685C121.167 65.9752 122.329 66.5825 123.486 67.1852C124.607 67.856 125.724 68.5245 126.838 69.1914C131.241 71.9287 135.416 74.9358 139.087 78.3433C141.002 79.9649 142.648 81.816 144.351 83.5692C145.178 84.4692 145.907 85.4401 146.684 86.3607C147.461 87.2826 148.214 88.2129 148.857 89.2096C149.532 90.1853 150.2 91.1534 150.864 92.1135C151.445 93.125 152.019 94.129 152.59 95.1236L153.439 96.6107L154.147 98.1529C154.613 99.1777 155.073 100.193 155.529 101.197C155.919 102.228 156.25 103.269 156.609 104.287C156.954 105.31 157.342 106.309 157.54 107.349C158.01 109.403 158.567 111.401 158.776 113.378C159.726 121.333 158.356 128.561 156.763 134.288C155.112 140.05 153.007 144.398 151.364 147.245C150.515 148.655 149.858 149.746 149.344 150.435C148.854 151.142 148.598 151.511 148.598 151.511C146.283 154.569 147.084 155.466 149.734 152.354C149.734 152.354 150.003 151.976 150.517 151.252C151.056 150.544 151.745 149.429 152.635 147.987C154.357 145.074 156.562 140.635 158.316 134.745C160.004 128.878 161.498 121.505 160.591 113.165C160.073 109.007 158.904 104.783 157.34 100.483C156.877 99.439 156.409 98.3823 155.937 97.3176L155.216 95.7142L154.353 94.1661C153.772 93.1305 153.185 92.0873 152.593 91.0348C151.917 90.0364 151.233 89.0296 150.545 88.0156C149.886 86.9782 149.119 86.0123 148.328 85.054C147.536 84.0956 146.787 83.0872 145.945 82.1522C144.208 80.3315 142.521 78.4091 140.568 76.726C136.817 73.1892 132.557 70.0694 128.06 67.2294C126.923 66.5375 125.782 65.8441 124.638 65.1482C123.455 64.5211 122.271 63.8918 121.082 63.2614C119.905 62.605 118.684 62.036 117.45 61.4853C116.216 60.9345 115.005 60.3309 113.747 59.823C108.735 57.7561 103.552 56.0386 98.2743 54.7013C87.7043 52.141 76.761 51.0072 66.2406 51.8909C55.7187 52.6126 45.672 55.4741 37.1514 59.9146C32.5668 62.405 28.1682 65.6134 24.7076 68.859C23.8416 69.6649 23.1014 70.5432 22.347 71.3215C21.6282 72.1355 20.8523 72.826 20.3022 73.615C19.1702 75.1102 18.2034 76.3879 17.4569 77.376C15.7698 79.2872 14.8129 81.8915 14.7743 84.4206C14.7367 84.4222 14.7085 84.411 14.6693 84.4154C14.6693 84.4154 10.6624 84.9313 -5.06456 86.9508C-4.65416 87.292 -3.90413 87.9144 -2.79106 88.8372C-1.90178 89.5619 -0.723512 90.5232 0.761171 91.735C2.01638 92.7491 3.58096 94.0117 5.4506 95.5241C5.24691 95.4533 5.04731 95.3849 4.83523 95.3128C4.05641 94.9812 3.14837 94.9306 2.22937 94.7837C1.76746 94.7345 1.29363 94.7954 0.817243 94.8018C0.336226 94.8036 -0.140952 94.8516 -0.604826 94.9826C-2.52762 95.2854 -4.21545 96.2949 -5.53277 97.2849C-6.80573 98.3488 -8.04491 99.7898 -8.90276 101.441C-9.34558 102.253 -9.6754 103.129 -9.97597 103.97C-10.1876 104.843 -10.4896 105.665 -10.5477 106.486C-10.8144 108.098 -10.7398 109.533 -10.6619 110.533C-10.5201 111.531 -10.4347 112.131 -10.4347 112.131C-10.3624 112.331 -9.86671 112.333 -9.48302 112.226C-10.081 113.022 -10.6645 113.833 -11.202 114.684C-12.4369 116.652 -13.4275 118.808 -14.02 121.065C-14.3207 122.232 -14.4666 123.289 -14.6105 124.327C-14.6654 124.749 -14.6931 125.155 -14.7391 125.572C-15.0139 125.699 -15.3386 125.923 -15.7168 126.306C-15.7168 126.306 -15.9049 126.497 -16.2629 126.865C-16.6057 127.247 -17.064 127.856 -17.6811 128.621C-18.8194 130.208 -20.4215 132.664 -21.3915 136.135C-22.3709 139.577 -22.7351 143.964 -21.9082 148.682C-21.5443 151.048 -20.9001 153.491 -20.0372 155.961C-19.1969 158.441 -18.1149 160.943 -16.8448 163.437C-11.7372 173.403 -3.93882 183.44 5.73539 191.427C6.96806 192.43 8.24934 193.344 9.50079 194.209C10.7581 195.093 12.0134 195.973 13.2633 196.85C15.772 198.59 18.2554 200.316 20.7398 201.966C25.6758 205.303 30.5779 208.366 35.2411 211.101C37.6085 212.413 40.0055 213.857 42.5855 215.131C43.8644 215.786 45.1596 216.45 46.4687 217.118C47.8076 217.733 49.1583 218.353 50.5227 218.977C51.8741 219.626 53.2723 220.203 54.6982 220.748C56.1187 221.299 57.5319 221.893 58.9819 222.416C61.9237 223.35 64.844 224.43 67.9038 225.093C79.9611 228.361 93.0828 228.083 103.765 224.393C109.023 222.395 113.69 219.913 117.563 217.142C121.424 214.36 124.461 211.314 126.548 208.436C128.663 205.565 129.781 202.898 130.469 201.073C130.771 200.139 131.032 199.427 131.16 198.931C131.184 198.822 131.205 198.73 131.225 198.645C132.13 198.743 133.423 198.812 134.885 198.604C137.805 198.247 141.309 196.454 143.144 193.998C144.06 192.789 144.808 191.146 145.022 189.373C145.056 188.933 145.028 188.484 145.024 188.046C145.044 187.603 144.967 187.179 144.856 186.765C144.756 186.351 144.671 185.939 144.554 185.554C144.386 185.189 144.222 184.832 144.063 184.487C143.783 183.772 143.332 183.236 142.971 182.727C142.788 182.476 142.616 182.24 142.454 182.018C142.263 181.829 142.086 181.651 141.926 181.49C141.677 181.246 141.479 181.053 141.315 180.891C142.34 178.791 143.241 176.943 143.946 175.5C144.103 175.164 144.237 174.877 144.342 174.653C144.361 174.615 144.377 174.566 144.395 174.543C144.421 174.568 144.445 174.589 144.467 174.611C144.512 174.653 144.547 174.684 144.573 174.709C144.679 174.802 144.643 174.745 144.378 174.445C147.275 177.476 149.857 180.175 151.326 181.713C151.446 181.835 151.563 181.957 151.675 182.073ZM-9.03222 111.624C-9.0343 111.37 -9.03728 110.987 -9.04229 110.471C-8.9949 109.559 -8.9074 108.275 -8.51949 106.892C-8.40061 106.182 -8.04862 105.496 -7.80597 104.765C-7.47676 104.071 -7.13934 103.351 -6.71486 102.7C-5.894 101.366 -4.81989 100.263 -3.81082 99.4136C-1.81231 97.6917 1.56406 96.5745 4.31124 97.308C4.6532 97.3835 4.98406 97.4561 5.30244 97.525C5.61478 97.6197 5.9004 97.7627 6.18225 97.8686C6.73824 98.0998 7.25834 98.2676 7.63358 98.535C7.7735 98.6176 7.88896 98.6858 8.00714 98.7555C7.51865 98.9251 6.9674 99.1327 6.36974 99.3972C3.9847 100.405 0.843246 102.22 -2.33169 104.808C-4.65406 106.681 -6.97793 108.991 -9.03222 111.624ZM133.167 190.216C132.016 192.359 130.059 195.218 127.302 197.957C124.568 200.667 120.966 203.345 116.973 204.457C114.994 205.036 112.95 205.097 111.096 204.688C109.253 204.239 107.601 203.291 106.283 202.145C105.102 200.962 103.992 199.497 103.376 197.564C102.716 195.682 102.278 193.585 102.016 191.413C101.449 187.086 101.262 182.561 100.603 178.539C100.338 176.765 99.957 175.104 99.5072 173.595C100.757 175.037 102.027 176.506 103.283 177.956C103.412 178.216 103.612 178.634 103.859 179.234C104.258 180.239 104.734 181.689 105.184 183.378C106.099 186.749 106.947 191.069 108.144 194.397C108.771 196.037 109.526 197.977 111.088 199.588C111.859 200.379 112.96 201.02 114.123 201.122C115.28 201.241 116.346 200.921 117.19 200.5C118.909 199.658 120.082 198.559 120.915 197.794C121.725 197.004 122.182 196.504 122.182 196.504C122.404 196.209 121.84 195.654 121.516 195.836C121.516 195.836 121.032 196.287 120.199 196.984C119.358 197.657 118.144 198.614 116.641 199.234C115.124 199.935 113.412 199.748 112.294 198.417C111.138 197.142 110.432 195.325 109.86 193.774C108.714 190.627 107.645 186.359 106.501 182.976C106.226 182.156 105.946 181.393 105.673 180.704C106.563 181.728 107.355 182.636 107.852 183.206C111.473 180.406 115.239 177.493 118.365 175.076C119.773 173.978 121.035 172.994 122.066 172.192C122.518 171.836 122.918 171.521 123.258 171.253C123.286 171.221 123.31 171.195 123.328 171.175C126.706 175.785 129.987 180.263 132.323 183.452C133.002 184.372 133.884 185.568 134.708 186.689C134.669 186.825 134.26 188.176 133.167 190.216ZM140.678 182.516C140.801 182.676 140.936 182.853 141.081 183.045C141.193 183.254 141.313 183.479 141.438 183.716C141.685 184.189 142.015 184.688 142.155 185.286C142.251 185.573 142.35 185.868 142.451 186.171C142.49 186.48 142.53 186.795 142.57 187.115C142.627 187.431 142.655 187.748 142.6 188.069C142.566 188.388 142.567 188.708 142.52 189.02C142.247 190.271 141.657 191.411 140.966 192.323C139.613 194.168 136.929 195.958 134.468 196.568C133.285 196.884 132.205 196.981 131.407 197.014C131.381 196.757 131.321 196.567 131.226 196.46C132.734 194.447 133.859 192.523 134.61 190.949C135.168 189.772 135.536 188.795 135.764 188.115C136.817 189.539 137.498 190.449 136.998 189.723C138.271 187.113 139.482 184.631 140.58 182.383C140.614 182.431 140.641 182.467 140.678 182.516ZM148.76 176.379C148.77 176.427 148.78 176.484 148.792 176.548C148.795 176.573 148.813 176.63 148.805 176.638L148.714 176.538C147.7 175.456 145.92 173.559 143.922 171.43C145.094 172.647 145.344 172.89 144.823 172.323C144.693 172.182 144.515 171.989 144.293 171.748C144.181 171.627 144.057 171.495 143.925 171.351C143.826 171.447 143.741 171.687 143.638 171.87C143.267 172.608 142.796 173.544 142.24 174.648C140.97 177.171 138.928 181.226 136.666 185.721C136.536 185.475 137.238 186.38 134.194 182.101C131.509 178.337 127.736 173.048 123.852 167.606C121.939 169.059 114.816 174.472 108.23 179.476L108.229 179.471L108.228 179.471L108.152 179.382C108.029 179.24 107.9 179.092 107.767 178.938C107.235 178.326 106.632 177.631 106.038 176.946C100.518 170.648 94.3342 163.594 91.9427 160.865C87.0659 163.133 83.4164 164.831 80.712 166.088C79.4694 166.675 78.4413 167.16 77.6003 167.558C76.4952 168.08 76.8163 167.948 76.6273 168.051C74.8608 164.363 73.1895 160.87 71.6144 157.581C71.183 156.679 70.7584 155.791 70.3391 154.919C70.1299 154.482 69.9225 154.048 69.7177 153.619L69.281 152.702L69.0152 152.144C68.9131 151.985 68.8923 151.676 68.6391 151.797C66.5554 152.075 64.5423 152.344 62.6013 152.604C59.134 153.068 55.9289 153.638 52.9901 154.088C51.7192 154.292 50.5061 154.488 49.3524 154.674C49.2501 154.63 49.1113 154.583 49.1257 154.446L49.0161 153.869C48.8926 153.237 48.7735 152.623 48.6581 152.027C47.7051 147.262 46.6731 143.657 45.8723 141.25C45.421 140.057 45.1134 139.144 44.8454 138.546C44.5523 137.954 44.4035 137.653 44.4035 137.653C43.4867 135.864 42.3453 136.563 43.1306 138.27C43.1306 138.27 43.263 138.552 43.5228 139.104C43.762 139.671 44.0424 140.567 44.4542 141.719C45.1826 144.069 46.1296 147.625 46.9909 152.347C47.0954 152.936 47.2022 153.543 47.3135 154.168L47.405 154.711C47.4405 154.983 47.4964 155.236 47.5821 155.457C47.6133 156.003 48.1616 156.213 48.6077 156.438C48.8613 156.452 49.1356 156.453 49.4106 156.434C49.6783 156.418 49.994 156.364 50.1196 156.347C50.4597 156.298 50.804 156.249 51.1532 156.2C51.851 156.101 52.5662 155.998 53.2962 155.894C56.2236 155.494 59.3962 154.976 62.8579 154.561C64.3798 154.379 65.96 154.191 67.5938 153.996C67.6528 153.992 67.6524 154.089 67.6835 154.129L67.8528 154.501C68.0539 154.933 68.2548 155.368 68.4581 155.809C68.865 156.686 69.2793 157.58 69.6996 158.487C71.5324 162.433 73.4803 166.624 75.5355 171.049C77.5868 170.131 82.1268 168.098 91.2686 164.008L91.2919 164.049C91.3205 164.084 91.2444 163.999 91.3582 164.132C91.4477 164.238 91.5412 164.346 91.6373 164.46C92.0217 164.91 92.4546 165.415 92.926 165.966C93.8731 167.068 94.9779 168.352 96.1763 169.745C96.2077 169.782 96.2418 169.82 96.2732 169.857C97.2818 172.002 98.1589 175.131 98.5606 178.828C99.041 182.725 99.0569 187.187 99.5173 191.717C99.7267 193.974 100.133 196.271 100.859 198.461C101.517 200.67 102.896 202.686 104.48 204.209C106.092 205.612 108.159 206.779 110.518 207.305C112.874 207.791 115.407 207.62 117.687 206.883C122.297 205.439 126.003 202.382 128.794 199.399C129.127 199.039 129.447 198.678 129.755 198.317C129.766 198.332 129.775 198.355 129.788 198.363C129.788 198.363 129.817 198.369 129.829 198.371C129.815 198.426 129.804 198.475 129.788 198.537C129.66 199.005 129.395 199.677 129.095 200.555C128.41 202.274 127.31 204.773 125.253 207.466C123.221 210.165 120.272 213.026 116.514 215.643C112.754 218.245 108.158 220.593 103.073 222.44C92.8121 225.801 80.205 225.941 68.5309 222.644C65.5734 221.975 62.7298 220.89 59.8741 219.958C58.4636 219.437 57.085 218.843 55.7005 218.293C54.3125 217.752 52.9487 217.179 51.6255 216.532C50.2919 215.911 48.97 215.296 47.6611 214.686C46.3772 214.021 45.1056 213.364 43.8519 212.714C41.3218 211.454 38.9559 210.019 36.6233 208.726C32.0155 206.027 27.1549 203.019 22.2288 199.733C19.7529 198.112 17.2656 196.41 14.7529 194.7C13.5025 193.839 12.2454 192.974 10.9864 192.106C9.70675 191.239 8.4748 190.377 7.31272 189.448C-2.08244 181.86 -9.91861 172.069 -14.9983 162.484C-16.2677 160.082 -17.3523 157.678 -18.1973 155.305C-19.0654 152.94 -19.7182 150.611 -20.1012 148.368C-20.9638 143.887 -20.6795 139.785 -19.8264 136.559C-18.9814 133.309 -17.5285 130.994 -16.4865 129.481C-15.9179 128.75 -15.4989 128.168 -15.1819 127.802C-15.0796 127.694 -14.998 127.608 -14.9268 127.531C-14.9754 128.51 -15.0245 129.518 -14.931 130.61C-14.8045 131.736 -14.713 132.977 -13.8222 134.298C-13.3984 134.955 -12.5947 135.517 -11.8233 135.722C-11.0499 135.939 -10.3137 135.939 -9.68093 135.86C-8.38905 135.711 -7.29695 135.353 -6.20761 135.026C-4.05538 134.343 -1.99969 133.667 0.0466159 133.307C1.06982 133.116 2.05771 133.056 3.10646 132.995C4.15996 132.918 5.1921 132.842 6.19313 132.766C8.20425 132.596 10.0287 132.578 11.71 132.482C13.3683 132.534 14.8458 132.582 16.0765 132.62C18.5078 132.986 19.9733 133.206 19.9733 133.206C20.7737 133.259 21.0919 132.115 20.2887 131.828C20.2887 131.828 18.7734 131.521 16.2567 131.012C14.983 130.91 13.4494 130.765 11.7265 130.655C10.0252 130.672 8.08956 130.612 6.10681 130.7C5.11089 130.733 4.08442 130.768 3.03522 130.804C1.98158 130.824 0.816818 130.854 -0.313135 131.024C-2.57916 131.34 -4.80919 132.002 -6.92627 132.606C-7.97611 132.895 -9.03187 133.188 -9.93956 133.264C-10.4015 133.317 -10.7866 133.271 -11.061 133.19C-11.333 133.095 -11.4835 133.002 -11.642 132.749C-11.9822 132.274 -12.157 131.313 -12.2197 130.408C-12.2922 129.482 -12.2379 128.512 -12.1888 127.585C-12.1264 126.651 -12.0264 125.675 -11.9061 124.67C-11.7796 123.659 -11.6409 122.614 -11.4132 121.691C-10.946 119.78 -10.1211 117.821 -9.03438 115.981C-6.85171 112.299 -3.92805 108.955 -0.989414 106.388C1.93687 103.796 4.8515 101.928 7.04681 100.872C8.13403 100.322 9.05483 99.9969 9.67868 99.7626C9.76966 99.7357 9.8412 99.7138 9.92138 99.6897C9.74096 100.076 9.54431 100.502 9.32231 100.977C8.82385 102.07 8.22651 103.373 7.57619 104.797C6.29617 107.654 4.80174 110.989 3.43013 114.054C2.60046 115.94 1.73883 117.899 1.31175 118.87C5.62621 120.139 10.1825 121.479 13.8677 122.563C15.4973 123.027 16.9354 123.436 18.0575 123.754C18.6188 123.908 19.1032 124.04 19.4912 124.146C19.5884 124.162 19.6233 124.159 19.6755 124.16C20.2418 127.871 20.7576 131.251 21.0935 133.459C21.1983 134.125 21.2895 134.703 21.3632 135.177C21.4183 135.534 21.4681 135.853 21.5104 136.129C21.5327 136.265 21.5523 136.39 21.5704 136.505L21.5973 136.667C21.6149 136.709 21.6934 136.678 21.7324 136.687C22.5045 136.679 22.522 136.662 21.65 136.631C37.0428 136.704 41.245 136.723 41.245 136.723C42.3399 136.649 42.3746 135.464 41.2645 135.309C41.2645 135.309 37.3915 135.213 23.2067 134.866C23.4079 134.851 23.4007 134.832 23.2769 134.812C23.2353 134.78 23.2592 134.641 23.2424 134.526C23.1976 134.155 23.1444 133.703 23.0833 133.179C22.753 130.626 22.2478 126.719 21.6937 122.43C21.2216 122.274 20.1881 121.933 18.7481 121.458C17.6364 121.104 16.2134 120.65 14.6002 120.134C11.7949 119.26 8.32592 118.179 5.041 117.156C5.05463 117.132 5.03231 117.189 5.07068 117.105C5.33671 116.506 5.63791 115.828 5.93404 115.162C7.27608 112.085 8.73766 108.735 9.99026 105.866C11.378 102.6 12.5319 99.879 13.092 98.561C8.26554 94.8613 4.62667 92.0699 2.0517 90.0953C1.44624 89.6407 0.904703 89.233 0.422994 88.8699L0.25763 88.7466L0.206255 88.7126L0.10542 88.6476C0.0350267 88.6023 -0.0299287 88.5603 -0.0894514 88.5215C-0.401148 88.3265 -0.611213 88.1951 -0.726434 88.1235C11.5995 86.2979 14.8094 85.8226 14.8602 85.8141C15.0943 88.266 15.8713 90.5586 16.868 92.6712C19.1183 97.3523 22.3155 101.345 25.6632 105.085C32.4561 112.507 40.1542 118.846 47.936 124.583C63.564 135.996 79.6763 144.99 94.2358 151.377C108.777 157.766 121.964 161.417 131.595 161.547C133.997 161.562 136.156 161.356 138.018 161.001C139.871 160.599 141.427 160.07 142.614 159.452C143.616 158.941 144.367 158.442 144.896 158.018C144.901 158.08 144.897 158.127 144.907 158.191C144.907 158.191 145.466 160.812 148.87 176.751C148.775 176.344 148.735 176.186 148.734 176.211C148.735 176.23 148.745 176.287 148.76 176.379Z" fill="#000058"/>
<path d="M24.3762 161.502C24.7636 161.504 24.9757 161.505 24.9757 161.505C25.4387 161.437 25.4273 160.252 25.0114 160.091C25.0114 160.091 24.8176 160.072 24.4637 160.035C24.1072 160.015 23.5968 159.943 22.9678 159.804C21.7159 159.554 19.9716 159.052 18.2582 158.017C16.556 156.993 14.8689 155.47 13.8499 153.584C12.8227 151.684 12.396 149.651 12.5325 147.676C12.5834 147.19 12.637 146.696 12.6897 146.194L12.768 145.438L12.808 145.056C12.7952 145.007 12.8626 144.893 12.785 144.9L12.5912 144.89C12.0726 144.862 11.5476 144.836 11.0185 144.808C10.5432 144.778 9.80395 144.761 9.67269 144.717C8.63577 144.577 7.5552 144.384 6.5443 143.983C4.48205 143.275 2.64884 141.94 1.52882 140.418C0.42491 138.877 0.225822 137.201 0.543772 136.101C0.735316 135.565 0.864591 135.101 1.07513 134.841C1.25442 134.562 1.35129 134.41 1.35129 134.41C1.52994 134.08 0.56478 133.145 0.236693 133.54C0.236693 133.54 0.0969944 133.717 -0.158274 134.041C-0.438304 134.345 -0.693972 134.918 -1.0004 135.62C-1.5846 137.059 -1.48982 139.48 -0.203603 141.549C1.06977 143.6 3.19617 145.344 5.61398 146.329C6.80821 146.869 8.08515 147.167 9.32759 147.371C9.48768 147.397 9.64423 147.424 9.79808 147.449C9.82087 147.497 9.78337 147.589 9.78351 147.647C9.64215 149.845 10.2632 152.65 11.6806 154.875C13.0784 157.149 15.2281 158.814 17.272 159.836C19.3355 160.871 21.3229 161.253 22.7219 161.403C23.4229 161.491 23.9869 161.516 24.3762 161.502Z" fill="#000058"/>
<path d="M27.3399 159.592C27.3041 159.234 27.2838 159.038 27.2838 159.038C27.2184 158.628 25.8796 158.578 25.8704 159.065C25.8704 159.065 25.87 159.283 25.872 159.679C25.854 160.079 25.8943 160.656 25.9952 161.379C26.1869 162.808 26.6979 164.859 28.0392 166.847C29.3269 168.855 31.5557 170.652 34.1723 171.474C35.4742 171.859 36.8417 172.075 38.1487 172.002C38.8086 172.002 39.4443 171.921 40.0576 171.797C40.8869 171.659 40.785 171.661 40.9184 171.624C41.0581 171.527 41.0551 171.712 41.1063 171.808L41.1399 171.894L41.3531 172.315C41.504 172.606 41.6554 172.898 41.8087 173.194C42.5064 174.324 43.3923 175.411 44.4792 176.233C46.6125 177.959 49.2049 178.772 51.4612 179.142C53.7335 179.517 55.7367 179.459 57.1515 179.322C57.9526 179.243 58.5426 179.15 58.9265 179.08C58.9257 179.153 58.9254 179.196 58.9234 179.287C58.922 179.51 58.9212 179.784 58.9186 180.105C58.9514 180.425 59.0333 180.792 59.1022 181.202C59.1639 181.616 59.2585 182.064 59.4844 182.525C59.6817 182.992 59.8588 183.514 60.2373 183.968C60.4081 184.207 60.5848 184.45 60.7654 184.7C60.9724 184.926 61.2159 185.125 61.4531 185.344C61.9088 185.816 62.4975 186.116 63.0884 186.465C65.5274 187.733 68.568 187.87 71.3867 187.477C72.8003 187.245 74.1895 186.897 75.4819 186.387C76.1296 186.134 76.7636 185.876 77.3481 185.547C77.6071 185.412 77.8611 185.28 78.1115 185.147L78.1134 185.15C78.3895 185.632 78.6859 186.148 78.9924 186.681C79.7459 187.84 80.5932 189.005 81.643 190.013C83.6551 192.088 86.457 193.557 89.1482 193.787C91.8656 193.993 94.1038 193.032 95.4514 192.196C96.1454 191.777 96.6598 191.4 96.9799 191.099C97.315 190.817 97.4976 190.663 97.4976 190.663C97.8535 190.274 97.0571 189.396 96.597 189.573C96.597 189.573 96.4186 189.698 96.0944 189.925C95.7834 190.175 95.294 190.47 94.6617 190.784C93.4191 191.424 91.5074 192.043 89.3855 191.734C87.2783 191.397 85.094 190.116 83.4554 188.262C82.6039 187.371 81.9118 186.325 81.2812 185.299L80.8535 184.506L80.6416 184.117C80.5737 183.996 80.4086 183.615 80.2993 183.378C80.0514 182.836 79.8079 182.302 79.5683 181.774L79.3872 181.379C79.313 181.297 79.3068 180.991 79.152 181.173L78.4141 181.662C77.9268 181.988 77.4305 182.32 76.9283 182.655L76.7385 182.781L76.6414 182.834L76.4541 182.934L76.077 183.138C75.5819 183.434 75.0389 183.665 74.4857 183.901C73.3795 184.378 72.1741 184.729 70.9514 184.991C68.5146 185.453 65.9071 185.455 63.9783 184.598C62.0261 183.771 61.0056 182.13 60.6728 180.82C60.5904 180.491 60.4928 180.197 60.4414 179.93C60.421 179.654 60.4037 179.417 60.3909 179.225C60.36 178.836 60.3445 178.624 60.3445 178.624C60.3153 178.403 59.9666 178.261 59.6251 178.241C59.5663 177.928 59.404 177.629 59.1838 177.592C59.1838 177.592 58.3929 177.697 57.0676 177.708C55.7471 177.719 53.8815 177.609 51.8692 177.117C49.8675 176.635 47.695 175.753 46.0972 174.299C45.2671 173.607 44.6428 172.744 44.1339 171.868L43.8068 171.184L43.6382 170.834L43.4015 170.112C43.0127 169.299 43.0625 167.664 41.8717 168.483C40.9867 168.75 39.8453 169.126 39.5501 169.129C39.0566 169.239 38.5502 169.321 38.0295 169.334C36.9902 169.431 35.9201 169.302 34.8764 169.055C32.7967 168.516 30.9127 167.23 29.7148 165.638C28.4744 164.077 27.871 162.347 27.5889 161.1C27.4424 160.464 27.3552 159.951 27.3399 159.592Z" fill="#000058"/>
<path d="M138.405 96.9213C138.405 96.9213 138.327 96.3366 138.226 95.5828C138.131 94.8124 137.813 93.8956 137.542 93.1949C136.892 91.8165 135.313 90.1164 135.313 90.1164C135.248 90.0674 134.497 90.551 134.519 90.6261C134.519 90.6261 135.318 92.7228 135.884 93.9639C136.134 94.6022 136.625 95.3522 136.915 96.0125C137.241 96.6589 137.493 97.1596 137.493 97.1596C137.572 97.2139 138.339 97.0199 138.405 96.9213Z" fill="#000058"/>
<path d="M131.857 102.596C131.751 101.966 131.453 101.174 131.022 100.645C130.639 100.096 130.195 99.8197 130.219 99.8079C130.156 99.7745 129.486 100.363 129.501 100.419C129.481 100.433 129.687 100.778 129.795 101.274C129.947 101.749 129.968 102.374 130.047 102.845C130.101 103.325 130.248 103.956 130.284 104.501C130.35 105.04 130.36 105.471 130.36 105.471C130.409 105.537 131.18 105.707 131.282 105.664C131.282 105.664 131.494 105.243 131.657 104.636C131.848 104.036 131.925 103.23 131.857 102.596Z" fill="#000058"/>
<path d="M142.901 117.776C142.939 117.861 143.698 118.087 143.806 118.045C143.806 118.045 144.77 116.159 145.133 114.869C145.478 113.574 145.611 111.444 145.611 111.444C145.6 111.368 144.746 111.113 144.707 111.176C144.707 111.176 143.742 113.061 143.38 114.351C143.035 115.646 142.901 117.776 142.901 117.776Z" fill="#000058"/>
<path d="M67.5315 62.3422C68.4468 62.3184 69.6523 62.312 70.6086 62.5945C71.5804 62.7946 72.2837 63.1548 72.2959 63.1217C72.4013 63.1418 72.8634 62.3778 72.7687 62.3054C72.7687 62.3054 72.5931 62.187 72.302 61.9913C72.0089 61.7927 71.5987 61.5101 71.0685 61.2942C70.0525 60.753 68.5853 60.4858 67.4439 60.5172C66.3008 60.5915 64.8872 61.0063 63.9158 61.5997C63.4004 61.8395 63.0251 62.1712 62.737 62.3675C62.4574 62.5743 62.2881 62.6996 62.2881 62.6996C62.222 62.8053 62.6539 63.467 62.7948 63.4953C62.7948 63.4953 62.9753 63.4223 63.275 63.3025C63.5775 63.1935 63.9696 62.9761 64.4631 62.8663C65.4103 62.5279 66.6128 62.4025 67.5315 62.3422Z" fill="#000058"/>
<path d="M60.4842 68.7553C61.2288 68.3816 61.8682 68.248 61.8623 68.2207C61.9405 68.1752 61.8525 67.2879 61.7502 67.2843C61.7502 67.2843 61.5687 67.2908 61.2695 67.301C60.9669 67.311 60.5381 67.3235 60.0674 67.4413C59.0942 67.5848 57.9727 68.1097 57.1799 68.6364C56.4265 69.2175 55.5822 70.0984 55.1046 70.9321C54.8339 71.3255 54.658 71.7071 54.5311 71.9748C54.4064 72.2419 54.3294 72.4034 54.3294 72.4034C54.328 72.5143 55.0101 72.9134 55.1393 72.8871C55.1393 72.8871 55.251 72.7662 55.434 72.5647C55.6158 72.3624 55.8556 72.0771 56.1772 71.7962C56.764 71.1809 57.62 70.5999 58.244 70.1201C58.8986 69.6878 59.7142 69.0665 60.4842 68.7553Z" fill="#000058"/>
<path d="M75.6324 73.9837C74.9032 73.9342 74.019 74.0698 73.3272 74.1927C72.6622 74.4192 71.8224 74.7276 71.2079 75.1232C70.5875 75.5007 70.1427 75.8041 70.1427 75.8041C70.1016 75.8861 70.4459 76.5969 70.5494 76.6543C70.5494 76.6543 71.0583 76.5462 71.7102 76.4072C72.3499 76.239 73.184 76.1635 73.7837 75.9607C74.4076 75.8472 75.1744 75.5104 75.815 75.35C76.4529 75.1569 76.9507 75.0057 76.9507 75.0057C77.0154 74.9706 76.9709 74.0779 76.8962 74.0649C76.8932 74.0668 76.358 74.0146 75.6324 73.9837Z" fill="#000058"/>
<path d="M89.3295 65.3087C87.6415 65.0742 85.0556 65.3336 85.0556 65.3336C84.9656 65.3867 84.9092 66.1741 84.9892 66.2745C84.9892 66.2745 87.4955 66.8822 89.0591 67.1165C90.6131 67.3141 93.1128 67.6322 93.1128 67.6322C93.2023 67.6264 93.5007 66.7859 93.4211 66.7407C93.4211 66.7407 92.8123 66.4655 92.0225 66.1091C91.2246 65.7168 90.1625 65.4927 89.3295 65.3087Z" fill="#000058"/>
<path d="M33.2147 74.6804C33.2147 74.6804 32.184 75.03 30.8309 75.4878C30.4953 75.6157 30.1197 75.7182 29.7668 75.8909C29.4213 76.0789 29.0669 76.2727 28.7141 76.4638C28.0118 76.8589 27.3055 77.2516 26.716 77.6418C26.1784 78.0994 25.5847 78.6428 24.998 79.1958C24.7091 79.4741 24.4181 79.7529 24.1346 80.0252C23.8816 80.3265 23.6576 80.6376 23.437 80.9214C22.5882 82.0672 21.9424 82.9407 21.9424 82.9407C21.8934 83.0858 22.5188 83.5687 22.6856 83.5188C22.6856 83.5188 23.4449 82.8038 24.4425 81.8649C24.6881 81.6289 24.9466 81.3803 25.2126 81.1252C25.5103 80.9034 25.8125 80.677 26.1161 80.4514C26.7165 79.9961 27.3003 79.5348 27.7989 79.1092C28.3431 78.749 28.9649 78.3412 29.5781 77.9046C29.8842 77.6841 30.1924 77.463 30.4925 77.2463C30.7989 77.0407 31.1307 76.8977 31.4239 76.73C32.6207 76.0682 33.5326 75.5661 33.5326 75.5661C33.6508 75.4838 33.3597 74.6396 33.2147 74.6804Z" fill="#000058"/>
<path d="M26.9738 88.2359C26.9738 88.2359 27.5424 87.7692 28.2851 87.1599C28.9724 86.4922 30.0205 85.9239 30.6955 85.3112C32.1692 84.1991 34.5201 82.4234 34.5201 82.4234C34.5896 82.349 34.1693 81.5623 34.0695 81.5949C34.0695 81.5949 31.2306 82.6612 29.6033 83.8474C28.8635 84.5171 27.8709 85.3325 27.3032 86.1918C26.7105 87.0033 26.2539 87.6277 26.2539 87.6277C26.229 87.7412 26.8351 88.2474 26.9738 88.2359Z" fill="#000058"/>
<path d="M33.7592 90.4764C33.1632 91.275 32.3782 92.288 31.9628 93.2244C31.5212 94.1306 31.182 94.8261 31.182 94.8261C31.1774 94.9425 31.8579 95.3443 31.9935 95.3071C31.9935 95.3071 32.4773 94.739 33.1054 93.9979C33.6826 93.2157 34.5819 92.4185 35.1372 91.6766C35.7783 91.0127 36.477 90.0403 37.1526 89.3491C37.8057 88.6338 38.3094 88.0848 38.3094 88.0848C38.3656 87.9989 37.8254 87.2879 37.7319 87.3408C37.7319 87.3408 37.0821 87.765 36.2387 88.3186C35.3809 88.8747 34.4541 89.7619 33.7592 90.4764Z" fill="#000058"/>
<path d="M42.0604 95.0331C42.0715 94.9554 41.3056 94.4995 41.2481 94.5535C41.2481 94.5535 39.7509 96.236 39.0667 97.5376C38.778 98.219 38.4205 99.0851 38.295 99.85C38.1606 100.59 38.0575 101.164 38.0575 101.164C38.0888 101.254 38.8476 101.477 38.9601 101.435C38.9601 101.435 39.2332 100.957 39.5825 100.341C39.8916 99.7118 40.4265 98.9889 40.6956 98.3656C41.3189 97.1453 42.0604 95.0331 42.0604 95.0331Z" fill="#000058"/>
<path d="M46.4018 105.642C46.2834 106.153 46.1886 106.559 46.1886 106.559C46.2165 106.636 46.8946 107.041 47.0025 107.036C47.0025 107.036 47.2891 106.708 47.6483 106.233C48.0259 105.758 48.339 105.154 48.561 104.647C48.7614 104.178 48.8728 103.483 49.0152 102.994C49.1336 102.483 49.2284 102.077 49.2284 102.077C49.2263 102.016 48.4599 101.558 48.4144 101.6C48.4144 101.6 48.127 101.929 47.7686 102.402C47.3911 102.878 47.078 103.482 46.856 103.989C46.6569 104.459 46.5455 105.154 46.4018 105.642Z" fill="#000058"/>
<path d="M136.941 152.083C136.69 152.409 136.538 152.607 136.538 152.607C136.489 152.745 137.028 153.323 137.192 153.286C137.192 153.286 137.391 153.114 137.721 152.828C138.056 152.543 138.52 152.138 138.976 151.608C139.96 150.603 140.918 149.139 141.557 147.941C142.141 146.717 142.731 145.091 143.031 143.747C143.209 143.083 143.318 142.489 143.393 142.065C143.468 141.642 143.514 141.387 143.514 141.387C143.523 141.248 142.66 141.019 142.602 141.147C142.602 141.147 142.51 141.382 142.354 141.772C142.203 142.163 141.995 142.707 141.722 143.312C141.228 144.54 140.472 145.984 139.924 147.123C139.335 148.235 138.638 149.698 137.891 150.759C137.552 151.317 137.198 151.762 136.941 152.083Z" fill="#000058"/>
<path d="M133.113 140.346C133.113 140.346 130.756 143.395 129.475 145.491C128.078 147.471 126.225 150.84 126.225 150.84C126.197 150.981 126.812 151.478 126.962 151.429C126.962 151.429 129.551 148.53 131.013 146.476C132.299 144.345 133.925 140.827 133.925 140.827C133.967 140.7 133.201 140.244 133.113 140.346Z" fill="#000058"/>
<path d="M122.681 141.233C122.681 141.233 120.916 143.369 120.012 144.884C119.122 146.407 118.104 148.985 118.104 148.985C118.109 149.095 118.789 149.498 118.916 149.465C118.916 149.465 120.682 147.327 121.585 145.813C122.475 144.29 123.493 141.712 123.493 141.712C123.514 141.618 122.748 141.163 122.681 141.233Z" fill="#000058"/>
<path d="M110.101 145.757C110.115 145.87 110.852 146.154 110.98 146.098C110.98 146.098 112.587 143.638 113.354 141.971C114.228 140.334 115.311 137.593 115.311 137.593C115.334 137.492 114.568 137.036 114.498 137.114C114.498 137.114 112.648 139.448 111.734 141.126C110.932 142.891 110.101 145.757 110.101 145.757Z" fill="#000058"/>
<path d="M106.225 134.344C106.225 134.344 104.55 136.383 103.598 137.657C103.124 138.298 102.577 139.157 102.045 139.766C101.795 140.091 101.549 140.347 101.364 140.523C101.183 140.708 101.073 140.82 101.073 140.82C101.041 140.919 101.464 141.586 101.591 141.608C101.591 141.608 101.746 141.527 102 141.394C102.261 141.262 102.615 141.06 102.979 140.781C103.747 140.254 104.548 139.436 105.074 138.735C106.116 137.306 107.039 134.823 107.039 134.823C107.056 134.733 106.29 134.277 106.225 134.344Z" fill="#000058"/>
<path d="M96.4189 130.567C96.4189 130.567 94.3309 132.192 93.1925 133.416C92.0652 134.652 90.6105 136.871 90.6105 136.871C90.5931 136.978 91.1555 137.533 91.2821 137.533C91.2821 137.533 93.37 135.908 94.5238 134.668C95.6655 133.416 97.1203 131.198 97.1203 131.198C97.1573 131.113 96.4953 130.515 96.4189 130.567Z" fill="#000058"/>
<path d="M23.9525 112.165C23.9525 112.165 20.5988 111.662 18.4414 111.608C16.2848 111.571 12.9378 111.935 12.9378 111.935C12.8262 111.962 12.8277 112.853 12.9442 112.876C12.9442 112.876 16.2971 113.381 18.4546 113.435C20.6111 113.472 23.9581 113.108 23.9581 113.108C24.0711 113.051 24.0682 112.261 23.9525 112.165Z" fill="#000058"/>
<path d="M37.0253 122.181C37.0253 122.181 36.472 122.367 35.7602 122.605C35.0421 122.862 34.1984 123.298 33.5725 123.694C32.9925 124.162 32.2565 124.757 31.788 125.38C31.3209 125.972 30.9556 126.432 30.9556 126.432C30.9406 126.526 31.5038 127.08 31.6264 127.096C31.6264 127.096 32.0948 126.799 32.6971 126.418C33.2652 125.999 34.0836 125.621 34.6147 125.196C35.1881 124.824 35.8576 124.239 36.4321 123.809C36.9974 123.37 37.4385 123.029 37.4385 123.029C37.4873 122.968 37.1036 122.163 37.0253 122.181Z" fill="#000058"/>
<path d="M57.8765 135.371C57.8789 135.255 57.0075 135.065 56.9555 135.172C56.9555 135.172 55.6266 138.273 55.0461 140.308C54.314 142.327 53.5519 145.625 53.5519 145.625C53.5685 145.752 54.3045 146.038 54.4306 145.964C54.4306 145.964 56.016 142.947 56.7753 140.895C57.3737 138.755 57.8765 135.371 57.8765 135.371Z" fill="#000058"/>
<path d="M77.3739 158.36C77.4745 156.675 77.2914 154.578 77.0113 152.958C76.6825 151.346 76.0606 149.324 75.3077 147.801C74.9664 147.026 74.6036 146.377 74.3118 145.928C74.035 145.476 73.8681 145.203 73.8681 145.203C73.7646 145.065 72.9899 145.505 73.0459 145.665C73.0459 145.665 73.1591 145.948 73.3478 146.416C73.5534 146.875 73.7996 147.531 74.0229 148.304C74.5366 149.82 74.9132 151.779 75.217 153.303C75.4879 154.834 75.8792 156.796 75.9953 158.405C76.0983 159.208 76.119 159.914 76.1408 160.424C76.166 160.933 76.1814 161.239 76.1814 161.239C76.2362 161.407 77.0226 161.468 77.122 161.3C77.122 161.3 77.1582 160.984 77.2186 160.463C77.2787 159.936 77.3682 159.201 77.3739 158.36Z" fill="#000058"/>
<path d="M85.3123 152.987C85.3123 152.987 83.5668 154.216 82.7814 155.357C82.0227 156.49 81.3697 158.458 81.3697 158.458C81.3847 158.548 82.0652 158.949 82.1799 158.938C82.1799 158.938 83.5779 157.421 84.283 156.397C84.6675 155.913 85.005 155.171 85.3822 154.641C85.7197 154.082 85.9842 153.646 85.9842 153.646C86.008 153.578 85.3759 152.948 85.3123 152.987Z" fill="#000058"/>
<path d="M107.916 166.405C107.196 164.226 105.549 161.106 105.549 161.106C105.48 161.008 104.645 161.321 104.668 161.44C104.668 161.44 105.5 164.857 106.178 166.957C106.451 168.018 107.034 169.326 107.319 170.416C107.657 171.5 107.915 172.33 107.915 172.33C107.996 172.435 108.779 172.327 108.847 172.195C108.847 172.195 108.768 171.298 108.666 170.127C108.582 168.935 108.2 167.521 107.916 166.405Z" fill="#000058"/>
<path d="M114.544 164.631C114.565 164.285 114.583 164.002 114.583 164.002C114.572 163.957 113.806 163.498 113.768 163.528C113.768 163.528 113.539 163.763 113.257 164.135C112.971 164.503 112.78 165.011 112.677 165.422C112.555 166.245 112.91 167.444 112.91 167.444C112.966 167.488 113.755 167.543 113.851 167.511C113.851 167.511 114.364 166.387 114.478 165.728C114.557 165.416 114.508 164.962 114.544 164.631Z" fill="#000058"/>
<path d="M24.1331 148.42C24.7658 149.477 25.9918 150.292 26.9826 150.727C27.9801 151.178 28.7619 151.365 28.7619 151.365C28.8836 151.355 29.1836 150.623 29.1253 150.495C29.1253 150.495 28.456 150.115 27.679 149.535C26.8906 148.965 26.0759 148.145 25.6888 147.46C25.2377 146.81 24.9804 145.846 25.132 144.941C25.2523 144.048 25.5669 143.351 25.5669 143.351C25.5851 143.252 24.8232 142.789 24.7497 142.879C24.7497 142.879 24.6311 143.049 24.4331 143.332C24.2493 143.625 23.9858 144.046 23.7966 144.599C23.3293 145.661 23.4275 147.415 24.1331 148.42Z" fill="#000058"/>
<path d="M31.183 152.304C30.8914 151.82 30.5656 151.118 30.6101 150.379C30.574 149.671 30.7118 149.074 30.6834 149.076C30.675 148.994 29.8355 148.69 29.7909 148.772C29.8183 148.785 29.4537 149.328 29.2416 150.218C28.9352 151.072 29.0982 152.425 29.6235 153.257C30.1236 154.157 31.1802 154.744 31.9732 155.086C32.7919 155.393 33.4156 155.525 33.4156 155.525C33.5175 155.505 33.7982 154.765 33.7598 154.647C33.7598 154.647 33.2499 154.323 32.647 153.882C32.0736 153.414 31.4326 152.821 31.183 152.304Z" fill="#000058"/>
<path d="M58.6094 161.577C58.394 162.293 58.4992 163.318 58.8301 164.049C59.2198 164.748 59.9943 165.465 60.7234 165.689C61.422 165.973 61.9683 165.978 61.9617 166.002C62.0473 165.972 62.2664 165.213 62.2389 165.101C62.2528 165.084 61.8271 164.871 61.4203 164.499C60.9642 164.164 60.6929 163.602 60.4616 163.228C60.2923 162.816 60.0102 162.249 59.9831 161.674C59.908 161.118 59.961 160.644 59.941 160.647C59.9243 160.582 59.0713 160.32 59.0341 160.386C59.0341 160.386 58.9809 160.511 58.8925 160.713C58.8191 160.924 58.6601 161.206 58.6094 161.577Z" fill="#000058"/>
<path d="M45.5466 164.669C45.9707 165.118 46.5917 165.633 47.1665 165.91C47.746 166.188 48.1796 166.36 48.1796 166.36C48.2612 166.346 48.6603 165.663 48.6633 165.55C48.6633 165.55 48.3767 165.228 48.014 164.822C47.647 164.426 47.2885 163.857 46.9415 163.489C46.2552 162.725 45.1093 161.451 45.1093 161.451C45.0552 161.415 44.2498 161.799 44.2616 161.863C44.2616 161.863 44.3841 162.307 44.589 162.897C44.7559 163.505 45.1948 164.167 45.5466 164.669Z" fill="#000058"/>
<path d="M65.2813 176.16C65.6804 176.278 66.1916 176.412 66.6386 176.34C67.0761 176.304 67.3816 176.242 67.3816 176.242C67.4278 176.189 67.4785 175.402 67.4529 175.302C67.4529 175.302 67.2103 175.161 66.9126 174.989C66.6114 174.866 66.287 174.559 65.9956 174.479C65.426 174.239 64.2505 174.049 64.2505 174.049C64.2032 174.058 63.7487 174.825 63.7722 174.862C63.7722 174.862 64.5279 175.82 65.2813 176.16Z" fill="#000058"/>
<path d="M84.566 179.515C84.9196 179.828 85.4079 180.016 85.812 180.153C86.2306 180.245 86.7834 180.208 87.2352 180.129C87.7304 179.994 88.043 179.853 88.043 179.853C88.0763 179.79 87.8707 179.028 87.8176 178.938C87.8176 178.938 87.5703 178.854 87.2663 178.751C86.9512 178.615 86.5399 178.449 86.2269 178.374C85.9182 178.267 85.4356 178.312 85.1051 178.245C84.7472 178.215 84.4548 178.189 84.4548 178.189C84.4095 178.2 83.9501 178.966 83.9793 179.003C83.9793 179.003 84.2101 179.233 84.566 179.515Z" fill="#000058"/>
<path d="M148.592 104.44C148.654 104.515 149.44 104.576 149.532 104.5C149.532 104.5 149.635 103.927 149.73 103.135C149.85 102.336 149.746 101.389 149.669 100.632C149.38 99.1581 148.4 97.0792 148.4 97.0792C148.353 97.0129 147.488 97.2333 147.487 97.3131C147.487 97.3131 147.62 99.5883 147.872 100.957C147.944 101.637 148.26 102.507 148.352 103.197C148.487 103.896 148.592 104.44 148.592 104.44Z" fill="#000058"/>
<path d="M-3.89223 159.643C-3.93327 159.502 -4.82387 159.546 -4.83363 159.696C-4.83363 159.696 -4.94709 164.037 -4.72932 166.823C-4.36686 169.604 -3.38943 173.837 -3.38943 173.837C-3.31191 173.973 -2.53227 173.847 -2.45955 173.687C-2.45955 173.687 -2.57183 169.368 -2.91199 166.643C-3.14055 163.9 -3.89223 159.643 -3.89223 159.643Z" fill="#000058"/>
<path d="M4.3031 174.278C4.20598 173.4 3.91664 172.276 3.80686 171.367C3.68676 170.453 3.59304 169.749 3.59304 169.749C3.56424 169.655 2.67447 169.586 2.65247 169.689C2.65247 169.689 2.55576 170.436 2.43006 171.406C2.32368 172.393 2.40104 173.614 2.5006 174.569C2.73312 175.503 2.98562 176.698 3.44296 177.593C3.868 178.474 4.19556 179.151 4.19556 179.151C4.28238 179.224 5.01095 178.918 5.06715 178.792C5.06715 178.792 4.93479 178.095 4.76253 177.189C4.53472 176.309 4.51478 175.135 4.3031 174.278Z" fill="#000058"/>
<path d="M11.2877 179.764C11.2805 178.793 11.479 178.087 11.4451 178.077C11.4408 177.975 10.6022 177.671 10.5526 177.773C10.5891 177.776 10.1498 178.508 9.9238 179.567C9.63392 180.62 9.54576 181.964 9.61072 182.999C9.70351 184.03 9.98073 185.317 10.3148 186.305C10.6235 187.303 10.9301 188.028 10.9301 188.028C11.0124 188.115 11.7772 187.918 11.8431 187.794C11.8431 187.794 11.5272 184.742 11.4327 182.863C11.3676 181.922 11.2344 180.72 11.2877 179.764Z" fill="#000058"/>
<path d="M84.152 221.359C84.152 221.359 85.2571 221.2 86.7044 220.992C87.4463 220.912 88.242 220.696 89.0223 220.439C89.8079 220.197 90.588 219.943 91.2643 219.698C91.9105 219.385 92.6298 218.989 93.3459 218.589C94.0665 218.194 94.7778 217.781 95.3485 217.304C96.505 216.41 97.3857 215.728 97.3857 215.728C97.4934 215.623 96.9681 214.902 96.8322 214.965C96.8322 214.965 95.8812 215.468 94.633 216.127C94.0333 216.491 93.3009 216.791 92.5777 217.092C91.8602 217.401 91.158 217.724 90.5449 218.018C89.907 218.252 89.1915 218.542 88.4735 218.849C87.7586 219.172 87.0341 219.481 86.3563 219.658C85.0166 220.096 83.9955 220.429 83.9955 220.429C83.8682 220.521 83.9898 221.302 84.152 221.359Z" fill="#000058"/>
<path d="M80.4486 216.474C80.1399 216.581 79.8303 216.69 79.528 216.795C79.2166 216.86 78.9121 216.926 78.6244 216.985C77.4713 217.253 76.5894 217.456 76.5894 217.456C76.4739 217.531 76.5114 218.321 76.6453 218.398C76.6453 218.398 77.5937 218.377 78.8326 218.348C79.1483 218.335 79.4809 218.321 79.8228 218.306C80.1584 218.241 80.5039 218.174 80.846 218.106C81.534 217.965 82.2174 217.81 82.8112 217.651C83.3868 217.439 84.0136 217.122 84.6423 216.818C85.2757 216.517 85.8962 216.189 86.394 215.806C87.3989 215.087 88.1685 214.538 88.1685 214.538C88.2609 214.449 87.7778 213.701 87.6588 213.744C87.6588 213.744 86.827 214.11 85.7412 214.59C85.2172 214.863 84.588 215.073 83.9678 215.276C83.3566 215.502 82.7519 215.725 82.2219 215.922C81.6783 216.07 81.065 216.265 80.4486 216.474Z" fill="#000058"/>
<path d="M75.2801 212.627C75.0071 212.779 74.628 212.993 74.1844 213.208C73.318 213.676 72.2073 214.127 71.3656 214.504C70.5158 214.845 69.4446 215.359 68.5154 215.58C68.0596 215.738 67.6437 215.8 67.3451 215.862C67.0453 215.923 66.8643 215.963 66.8643 215.963C66.7685 216.029 66.767 216.819 66.8777 216.905C66.8777 216.905 67.0777 216.917 67.4072 216.939C67.7403 216.958 68.2119 217 68.7415 216.941C69.8216 216.917 71.1234 216.565 72.0901 216.181C73.0345 215.751 74.1533 215.042 74.9428 214.359C75.3523 214.035 75.6853 213.722 75.9183 213.495C76.1518 213.27 76.2934 213.136 76.2934 213.136C76.3588 213.05 75.8162 212.343 75.7205 212.387C75.7205 212.387 75.555 212.478 75.2801 212.627Z" fill="#000058"/>
<path d="M68.1876 211.149C68.1876 211.149 68.0188 211.116 67.7411 211.061C67.4615 211.004 67.0673 210.937 66.6104 210.898C65.7024 210.785 64.5299 210.825 63.6339 211.027C62.7422 211.25 61.6504 211.734 60.8964 212.304C60.498 212.55 60.2082 212.852 59.9899 213.042C59.7775 213.237 59.6482 213.356 59.6482 213.356C59.6073 213.457 60.0927 214.081 60.2203 214.106C60.2203 214.106 60.3665 214.039 60.6049 213.927C60.8471 213.821 61.1577 213.636 61.5551 213.515C62.3114 213.196 63.2948 212.989 64.0502 212.804C64.8094 212.626 65.8003 212.381 66.6388 212.274C67.0539 212.204 67.4275 212.16 67.6943 212.137C67.9617 212.106 68.1249 212.087 68.1249 212.087C68.2114 212.065 68.2805 211.175 68.1876 211.149Z" fill="#000058"/>
<path d="M56.5245 206.509C55.7758 207.113 54.8083 208.37 54.8083 208.37C54.8 208.45 55.2273 209.116 55.3217 209.161C55.3217 209.161 56.8642 208.562 57.6878 207.918C58.4549 207.252 59.3658 205.904 59.3658 205.904C59.3868 205.847 58.8022 205.174 58.7472 205.193C58.7472 205.193 57.2848 205.87 56.5245 206.509Z" fill="#000058"/>
<path d="M96.2471 75.2624C95.5871 75.3563 95.0989 75.6341 95.1049 75.6084C95.0427 75.6486 95.2717 76.5111 95.3303 76.5236C95.3407 76.5463 95.7303 76.5162 96.2748 76.6398C96.8054 76.7277 97.4786 76.931 98.0222 77.0248C99.1035 77.2071 100.991 77.2129 100.991 77.2129C101.063 77.1678 101.229 76.3958 101.189 76.2912C101.189 76.2912 99.5516 75.4492 98.3325 75.2241C97.7261 75.128 96.9142 75.1286 96.2471 75.2624Z" fill="#000058"/>
<path d="M100.844 84.5384C100.776 84.5329 100.321 85.2996 100.365 85.3507C100.365 85.3507 101.717 86.653 102.725 87.2573C103.741 87.848 105.533 88.4024 105.533 88.4024C105.617 88.3821 106.019 87.7037 106.013 87.5901C106.013 87.5901 104.66 86.2878 103.654 85.6843C102.639 85.0922 100.844 84.5384 100.844 84.5384Z" fill="#000058"/>
<path d="M117.05 71.4585C116.992 71.4587 116.538 72.2262 116.571 72.2708C116.571 72.2708 117.623 73.3924 118.319 73.9056C118.644 74.1914 119.179 74.4154 119.558 74.6944C119.962 74.9382 120.285 75.1326 120.285 75.1326C120.363 75.1275 120.961 74.6119 120.995 74.5132C120.995 74.5132 120.264 73.0682 119.404 72.4361C118.554 71.8337 117.05 71.4585 117.05 71.4585Z" fill="#000058"/>
<path d="M120.352 89.2892C120.428 89.2951 121.093 88.867 121.144 88.7766C121.144 88.7766 120.737 87.3585 120.202 86.6061C119.616 85.8757 118.402 85.0378 118.402 85.0378C118.35 85.02 117.676 85.606 117.689 85.6556C117.689 85.6556 118.198 87.0023 118.722 87.6782C119.237 88.3761 120.352 89.2892 120.352 89.2892Z" fill="#000058"/>
<path d="M117.415 98.2515C117.479 98.2511 117.94 97.4862 117.889 97.436C117.889 97.436 117.791 97.3563 117.629 97.2276C117.459 97.1054 117.241 96.8957 116.931 96.7461C116.345 96.3777 115.484 96.1409 114.823 96.1004C114.168 96.0871 113.369 96.2421 112.786 96.4072C112.208 96.5712 111.752 96.7013 111.752 96.7013C111.694 96.7645 111.735 97.5545 111.804 97.6427C111.804 97.6427 112.281 97.7213 112.894 97.7825C113.518 97.8338 114.226 97.9094 114.751 97.9262C115.264 97.9564 115.913 97.9275 116.447 98.0376C116.724 98.0562 116.953 98.1493 117.131 98.1829C117.308 98.2249 117.415 98.2515 117.415 98.2515Z" fill="#000058"/>
<path d="M86.5291 83.4437C86.105 83.0358 85.7765 82.7668 85.7765 82.7668C85.7198 82.7388 85.0487 83.3263 85.0618 83.3816C85.0618 83.3816 85.2026 83.7451 85.3785 84.2043C85.6068 84.6212 85.6778 85.2549 85.8987 85.6472C86.241 86.4978 87.0537 87.9138 87.0537 87.9138C87.124 87.9498 87.8902 87.7537 87.9662 87.6776C87.9662 87.6776 87.9929 86.019 87.5934 84.9643C87.3218 84.4687 86.998 83.8287 86.5291 83.4437Z" fill="#000058"/>
<path d="M122.698 185.239C122.289 184.576 122.118 183.758 122.21 183.263C122.25 183.009 122.336 182.72 122.504 182.411C122.693 182.116 122.94 181.804 123.23 181.563C123.793 181.063 124.346 180.753 124.346 180.753C124.408 180.694 124.101 179.856 124.005 179.873C124.005 179.873 123.331 179.984 122.467 180.414C122.034 180.62 121.569 180.955 121.162 181.395C120.77 181.854 120.482 182.448 120.4 183.015C120.334 183.581 120.437 184.221 120.678 184.762C120.936 185.288 121.261 185.755 121.608 186.08C122.282 186.759 122.881 187.089 122.881 187.089C122.988 187.106 123.492 186.497 123.493 186.371C123.493 186.371 123.075 185.897 122.698 185.239Z" fill="#000058"/>
<path d="M117.699 188.19C117.446 188 117.073 187.866 116.799 187.842C116.515 187.796 116.29 187.789 116.29 187.789C116.252 187.801 115.799 188.568 115.809 188.6C115.809 188.6 115.918 188.792 116.07 189.014C116.247 189.237 116.386 189.485 116.531 189.596C116.693 189.717 116.846 189.736 117.035 189.841C117.21 189.955 117.359 190.053 117.359 190.053C117.424 190.054 118.191 189.865 118.27 189.809C118.27 189.809 118.295 189.56 118.25 189.189C118.208 188.85 117.93 188.363 117.699 188.19Z" fill="#000058"/>
<path d="M16.1954 126.601C16.1954 126.601 15.6876 126.298 14.7731 125.994C13.8617 125.688 12.5478 125.404 11.0506 125.293C8.04852 125.05 4.3778 125.44 1.57687 125.791C0.175297 125.961 -1.4146 126.206 -2.97171 126.305C-4.47547 126.411 -6.2124 126.33 -6.70531 125.57C-6.96138 125.207 -7.00876 124.629 -6.91926 124.087C-6.83192 123.545 -6.68939 123.042 -6.53429 122.634C-6.40196 122.217 -6.24707 121.893 -6.14937 121.669C-6.05302 121.443 -5.99843 121.32 -5.99843 121.32C-5.89834 121.051 -6.67682 120.613 -6.83587 120.886C-6.83587 120.886 -6.90453 121.008 -7.02927 121.235C-7.15481 121.463 -7.34626 121.784 -7.53493 122.228C-7.74238 122.657 -7.95553 123.198 -8.11857 123.862C-8.26742 124.505 -8.37468 125.404 -7.87647 126.3C-7.34709 127.207 -6.33867 127.602 -5.49793 127.776C-4.62633 127.954 -3.75619 128 -2.9157 127.985C-1.22548 127.965 0.389126 127.771 1.80262 127.602C4.62051 127.241 8.16158 126.652 10.9919 126.671C12.4058 126.668 13.6252 126.828 14.471 127.03C15.3184 127.23 15.7894 127.453 15.7894 127.453C16.0676 127.509 16.4512 126.816 16.1954 126.601Z" fill="#000058"/>
</g>
<defs>
<clipPath id="clip0_59_1360">
<rect width="282" height="213" rx="10" fill="white"/>
</clipPath>
</defs>
</svg>
